<svg width="47" height="46" viewBox="0 0 47 46" fill="none" xmlns="http://www.w3.org/2000/svg">
<g clip-path="url(#clip0_22_536)">
<path d="M40.6649 0H6.33511C4.65493 0 3.04357 0.653246 1.85551 1.81603C0.667447 2.97882 0 4.55589 0 6.20032L0 39.7997C0 41.4441 0.667447 43.0212 1.85551 44.184C3.04357 45.3468 4.65493 46 6.33511 46H23.266V29.5595H18.9043C18.6329 29.5595 18.3726 29.4544 18.1802 29.2671C17.9878 29.0798 17.8791 28.8256 17.8777 28.56V23.2603C17.877 23.1279 17.903 22.9967 17.9543 22.8742C18.0056 22.7517 18.0811 22.6403 18.1765 22.5465C18.2719 22.4526 18.3853 22.3781 18.5102 22.3273C18.6351 22.2765 18.769 22.2503 18.9043 22.2503H23.2606V17.1277C23.2606 11.1876 26.984 7.94953 32.383 7.94953H36.8298C36.965 7.94952 37.099 7.97568 37.2239 8.0265C37.3488 8.07732 37.4622 8.1518 37.5576 8.24565C37.653 8.3395 37.7285 8.45088 37.7798 8.57338C37.831 8.69589 37.8571 8.8271 37.8564 8.95948V13.4262C37.8571 13.5586 37.831 13.6898 37.7798 13.8123C37.7285 13.9348 37.653 14.0462 37.5576 14.14C37.4622 14.2339 37.3488 14.3084 37.2239 14.3592C37.099 14.41 36.965 14.4362 36.8298 14.4362H34.1064C31.1596 14.4362 30.5904 15.8053 30.5904 17.8148V22.2503H37.0638C37.2091 22.2501 37.3529 22.28 37.4855 22.3381C37.6181 22.3962 37.7366 22.4813 37.8331 22.5876C37.9296 22.6939 38.002 22.819 38.0455 22.9547C38.0889 23.0904 38.1024 23.2336 38.0851 23.3748L37.4415 28.6745C37.4116 28.9193 37.2913 29.145 37.1032 29.309C36.915 29.473 36.6721 29.5639 36.4202 29.5647H30.6223L30.5904 46H40.6649C42.3451 46 43.9564 45.3468 45.1445 44.184C46.3326 43.0212 47 41.4441 47 39.7997V6.20032C47 4.55589 46.3326 2.97882 45.1445 1.81603C43.9564 0.653246 42.3451 0 40.6649 0V0Z" fill="white"/>
</g>
<defs>
<clipPath id="clip0_22_536">
<rect width="47" height="46" fill="white"/>
</clipPath>
</defs>
</svg>
