<svg width="24" height="21" viewBox="0 0 24 21" fill="none" xmlns="http://www.w3.org/2000/svg">
<path d="M2.25 0.776367C0.984375 0.776367 0 1.80762 0 3.02637C0 4.29199 0.984375 5.27637 2.25 5.27637C3.46875 5.27637 4.5 4.29199 4.5 3.02637C4.5 1.80762 3.46875 0.776367 2.25 0.776367ZM2.25 8.27637C0.984375 8.27637 0 9.30762 0 10.5264C0 11.792 0.984375 12.7764 2.25 12.7764C3.46875 12.7764 4.5 11.792 4.5 10.5264C4.5 9.30762 3.46875 8.27637 2.25 8.27637ZM2.25 15.7764C0.984375 15.7764 0 16.8076 0 18.0264C0 19.292 0.984375 20.2764 2.25 20.2764C3.46875 20.2764 4.5 19.292 4.5 18.0264C4.5 16.8076 3.46875 15.7764 2.25 15.7764ZM23.25 16.5264H8.25C7.82812 16.5264 7.5 16.9014 7.5 17.2764V18.7764C7.5 19.1982 7.82812 19.5264 8.25 19.5264H23.25C23.625 19.5264 24 19.1982 24 18.7764V17.2764C24 16.9014 23.625 16.5264 23.25 16.5264ZM23.25 1.52637H8.25C7.82812 1.52637 7.5 1.90137 7.5 2.27637V3.77637C7.5 4.19824 7.82812 4.52637 8.25 4.52637H23.25C23.625 4.52637 24 4.19824 24 3.77637V2.27637C24 1.90137 23.625 1.52637 23.25 1.52637ZM23.25 9.02637H8.25C7.82812 9.02637 7.5 9.40137 7.5 9.77637V11.2764C7.5 11.6982 7.82812 12.0264 8.25 12.0264H23.25C23.625 12.0264 24 11.6982 24 11.2764V9.77637C24 9.40137 23.625 9.02637 23.25 9.02637Z" fill="#343846"/>
</svg>
