<svg width="47" height="46" viewBox="0 0 47 46" fill="none" xmlns="http://www.w3.org/2000/svg">
<path d="M41.7778 0H5.22222C2.33807 0 0 2.28832 0 5.11111V40.8889C0 43.7117 2.33807 46 5.22222 46H41.7778C44.6619 46 47 43.7117 47 40.8889V5.11111C47 2.28832 44.6619 0 41.7778 0Z" fill="white"/>
<path d="M23.5585 6.06878C16.4697 6.06878 9.73185 5.45461 7.1686 11.9138C6.10501 14.5786 6.25923 18.045 6.25923 23.0052C6.25923 27.3564 6.12096 31.4474 7.1686 34.0914C9.73185 40.5558 16.5175 39.9364 23.5585 39.9364C30.3442 39.9364 37.3426 40.6286 39.9431 34.0914C41.0067 31.4005 40.8525 27.9862 40.8525 23.0052C40.8525 16.3899 41.2247 12.1168 37.9489 8.9106C34.673 5.70445 30.1421 6.06878 23.5532 6.06878H23.5585ZM22.011 9.124C36.7949 9.09797 38.6774 7.48969 37.6404 29.8391C37.2682 37.7452 31.1206 36.876 23.5638 36.876C9.77971 36.876 9.38086 36.4908 9.38086 22.9948C9.38086 9.3426 10.4764 9.1292 22.011 9.11879V9.124ZM32.7958 11.9346C32.3856 11.9346 31.9846 12.0536 31.6435 12.2767C31.3025 12.4997 31.0366 12.8168 30.8797 13.1877C30.7227 13.5586 30.6816 13.9667 30.7616 14.3605C30.8417 14.7542 31.0392 15.1159 31.3292 15.3998C31.6193 15.6837 31.9888 15.877 32.3912 15.9553C32.7935 16.0337 33.2105 15.9935 33.5895 15.8398C33.9684 15.6862 34.2924 15.426 34.5202 15.0922C34.7481 14.7584 34.8698 14.3659 34.8698 13.9645C34.8698 13.4261 34.6513 12.9098 34.2623 12.5291C33.8734 12.1484 33.3458 11.9346 32.7958 11.9346ZM23.5585 14.308C21.8007 14.3069 20.0821 14.8162 18.6201 15.7712C17.1581 16.7262 16.0183 18.0842 15.3449 19.6733C14.6715 21.2624 14.4947 23.0113 14.837 24.6987C15.1793 26.3862 16.0252 27.9364 17.2678 29.1532C18.5103 30.3701 20.0937 31.1989 21.8176 31.5349C23.5415 31.8709 25.3285 31.699 26.9526 31.0409C28.5767 30.3828 29.9648 29.268 30.9415 27.8377C31.9182 26.4073 32.4395 24.7256 32.4395 23.0052C32.4395 20.6995 31.504 18.4881 29.8386 16.8572C28.1733 15.2263 25.9144 14.3094 23.5585 14.308ZM23.5585 17.358C31.1844 17.358 31.1951 28.6472 23.5585 28.6472C15.9219 28.6472 15.9538 17.358 23.5585 17.358Z" fill="#163842"/>
</svg>
