<svg width="18" height="18" viewBox="0 0 18 18" fill="none" xmlns="http://www.w3.org/2000/svg">
<path fill-rule="evenodd" clip-rule="evenodd" d="M14.1187 11.6404C14.3566 11.6129 14.5978 11.636 14.8262 11.7082C15.0546 11.7803 15.265 11.9 15.4439 12.0592C15.6228 12.2183 15.766 12.4135 15.864 12.6318C15.962 12.8501 16.0126 13.0866 16.0126 13.3258C16.0126 13.5651 15.962 13.8016 15.864 14.02C15.766 14.2383 15.6228 14.4334 15.4439 14.5926C15.265 14.7518 15.0546 14.8714 14.8262 14.9436C14.5978 15.0157 14.3566 15.0387 14.1187 15.0112C13.8807 15.0387 13.6396 15.0157 13.4111 14.9436C13.1827 14.8714 12.9723 14.7518 12.7934 14.5926C12.6146 14.4334 12.4715 14.2383 12.3735 14.02C12.2755 13.8016 12.2248 13.5651 12.2248 13.3258C12.2248 13.0866 12.2755 12.8501 12.3735 12.6318C12.4715 12.4135 12.6146 12.2183 12.7934 12.0592C12.9723 11.9 13.1827 11.7803 13.4111 11.7082C13.6396 11.636 13.8807 11.6129 14.1187 11.6404ZM9.25873 11.6404C9.59471 11.6404 9.9231 11.74 10.2025 11.9264C10.4818 12.1128 10.6996 12.3779 10.8281 12.6879C10.9567 12.9979 10.9904 13.339 10.9248 13.6682C10.8593 13.9973 10.6975 14.2995 10.4599 14.5368C10.2224 14.7741 9.91963 14.9357 9.5901 15.0012C9.26058 15.0667 8.91902 15.033 8.60861 14.9046C8.29821 14.7762 8.03282 14.5587 7.84616 14.2797C7.6595 14.0007 7.55997 13.6726 7.55997 13.3371C7.55694 13.1134 7.59872 12.8915 7.68301 12.6843C7.76731 12.4771 7.89243 12.2888 8.05078 12.1306C8.20913 11.9725 8.39757 11.8476 8.60504 11.7634C8.81251 11.6793 9.03481 11.6374 9.25873 11.6404ZM4.36487 11.6404C4.60284 11.6129 4.84399 11.636 5.07239 11.7082C5.30079 11.7803 5.51137 11.9 5.69023 12.0592C5.86909 12.2183 6.01218 12.4135 6.11018 12.6318C6.20819 12.8501 6.25891 13.0866 6.25891 13.3258C6.25891 13.5651 6.20819 13.8016 6.11018 14.02C6.01218 14.2383 5.86909 14.4334 5.69023 14.5926C5.51137 14.7518 5.30079 14.8714 5.07239 14.9436C4.84399 15.0157 4.60284 15.0387 4.36487 15.0112C3.95089 14.9634 3.56901 14.7654 3.29178 14.4546C3.01454 14.1439 2.86139 13.742 2.86139 13.3258C2.86139 12.9096 3.01454 12.5079 3.29178 12.1971C3.56901 11.8864 3.95089 11.6882 4.36487 11.6404ZM14.1187 7.24726C14.5673 7.24725 14.9976 7.42446 15.3159 7.74021C15.6342 8.05596 15.8145 8.48463 15.8174 8.93266C15.8205 9.1563 15.7785 9.37818 15.6942 9.58539C15.6099 9.7926 15.485 9.98094 15.3266 10.1391C15.1683 10.2972 14.9798 10.4221 14.7724 10.5063C14.5649 10.5905 14.3426 10.6323 14.1187 10.6293C13.6671 10.6293 13.2338 10.4509 12.9135 10.1331C12.5931 9.8152 12.4116 9.38366 12.4086 8.93266C12.4202 8.48544 12.6048 8.06007 12.9236 7.74583C13.2425 7.4316 13.6708 7.25292 14.1187 7.24726ZM9.25873 7.24726C9.70554 7.25301 10.1325 7.43199 10.4495 7.74652C10.7665 8.06104 10.9488 8.48645 10.9575 8.93266C10.9575 9.38263 10.7785 9.81419 10.4599 10.1324C10.1414 10.4506 9.70926 10.6293 9.25873 10.6293C9.03481 10.6323 8.81251 10.5905 8.60504 10.5063C8.39757 10.4221 8.20913 10.2972 8.05078 10.1391C7.89243 9.98094 7.76731 9.7926 7.68301 9.58539C7.59872 9.37818 7.55694 9.1563 7.55997 8.93266C7.56294 8.48463 7.74324 8.05596 8.06149 7.74021C8.37975 7.42446 8.81013 7.24725 9.25873 7.24726ZM4.36487 7.24726C4.81346 7.24725 5.24385 7.42446 5.5621 7.74021C5.88036 8.05596 6.06066 8.48463 6.06363 8.93266C6.09115 9.17033 6.06803 9.41104 5.99579 9.63915C5.92355 9.86727 5.80386 10.0776 5.6445 10.2562C5.48514 10.4349 5.28974 10.5778 5.07115 10.6757C4.85256 10.7735 4.61568 10.8242 4.37613 10.8242C4.13658 10.8242 3.89983 10.7735 3.68124 10.6757C3.46266 10.5778 3.26726 10.4349 3.10789 10.2562C2.94853 10.0776 2.82871 9.86727 2.75647 9.63915C2.68423 9.41104 2.66111 9.17033 2.68863 8.93266C2.69446 8.48747 2.87412 8.06216 3.18933 7.74734C3.50454 7.43252 3.93039 7.25308 4.37613 7.24726H4.36487ZM3.90372 3.39328H5.02872C5.10259 3.39182 5.1754 3.37582 5.24309 3.34623C5.31077 3.31664 5.37193 3.27408 5.42313 3.22087C5.47432 3.16766 5.51461 3.10485 5.5415 3.03612C5.5684 2.96739 5.58145 2.89401 5.57996 2.82023V0.573044C5.58145 0.499264 5.5684 0.42589 5.5415 0.357158C5.51461 0.288427 5.47432 0.225758 5.42313 0.172544C5.37193 0.11933 5.31077 0.0766361 5.24309 0.047045C5.1754 0.017454 5.10259 0.00146086 5.02872 9.99498e-09H3.90372C3.7565 0.00585417 3.61743 0.0692305 3.51645 0.176385C3.41547 0.283539 3.36068 0.425927 3.36374 0.573044V2.82023C3.36349 2.96655 3.4192 3.10747 3.51961 3.21401C3.62001 3.32056 3.75747 3.38467 3.90372 3.39328ZM18 4.51687V15.7528C18 16.3488 17.7629 16.9204 17.341 17.3418C16.919 17.7632 16.3467 18 15.75 18H2.25C1.65326 18 1.08086 17.7632 0.658905 17.3418C0.236948 16.9204 0 16.3488 0 15.7528V4.51687C0 3.92088 0.236948 3.34933 0.658905 2.9279C1.08086 2.50647 1.65326 2.26968 2.25 2.26968H2.78998V2.82023C2.78998 3.11823 2.90845 3.40407 3.11943 3.61479C3.33041 3.8255 3.61661 3.94383 3.91498 3.94383H5.03998C5.33835 3.94383 5.62441 3.8255 5.83539 3.61479C6.04637 3.40407 6.16498 3.11823 6.16498 2.82023V2.26968H11.79V2.82023C11.79 3.11823 11.9085 3.40407 12.1194 3.61479C12.3304 3.8255 12.6166 3.94383 12.915 3.94383H14.04C14.3383 3.94383 14.6244 3.8255 14.8354 3.61479C15.0464 3.40407 15.165 3.11823 15.165 2.82023V2.26968H15.75C16.3467 2.26968 16.919 2.50647 17.341 2.9279C17.7629 3.34933 18 3.92088 18 4.51687ZM16.875 6.76406C16.875 4.59552 4.17375 5.64046 2.25 5.64046C1.95163 5.64046 1.66543 5.75893 1.45445 5.96964C1.24347 6.18036 1.125 6.46606 1.125 6.76406V15.7528C1.125 16.0508 1.24347 16.3367 1.45445 16.5474C1.66543 16.7581 1.95163 16.8764 2.25 16.8764H15.75C16.0484 16.8764 16.3344 16.7581 16.5454 16.5474C16.7564 16.3367 16.875 16.0508 16.875 15.7528V6.76406ZM12.9262 3.39328H14.0512C14.2025 3.3904 14.3468 3.32909 14.4538 3.22224C14.5607 3.11539 14.6221 2.97131 14.625 2.82023V0.573044C14.625 0.421066 14.5645 0.275345 14.4569 0.167881C14.3493 0.0604163 14.2034 9.99498e-09 14.0512 9.99498e-09H12.9262C12.773 -2.82896e-05 12.6258 0.0600417 12.5164 0.167195C12.4071 0.274348 12.3442 0.420042 12.3412 0.573044V2.82023C12.3469 2.97232 12.4107 3.1165 12.5195 3.22306C12.6283 3.32963 12.7739 3.39051 12.9262 3.39328Z" fill="#153842"/>
</svg>
