<svg width="46" height="46" viewBox="0 0 46 46" fill="none" xmlns="http://www.w3.org/2000/svg">
<g clip-path="url(#clip0_22_520)">
<path d="M41.8404 0H4.16478C3.06021 0 2.00088 0.438788 1.21984 1.21984C0.438788 2.00088 0 3.06021 0 4.16478L0 41.8404C0 42.945 0.438788 44.0043 1.21984 44.7854C2.00088 45.5664 3.06021 46.0052 4.16478 46.0052H41.8404C42.945 46.0052 44.0043 45.5664 44.7854 44.7854C45.5664 44.0043 46.0052 42.945 46.0052 41.8404V4.16478C46.0052 3.06021 45.5664 2.00088 44.7854 1.21984C44.0043 0.438788 42.945 0 41.8404 0V0ZM14.2488 39.7216C14.2488 39.8824 14.2167 40.0416 14.1544 40.1899C14.0921 40.3381 14.0008 40.4725 13.8858 40.585C13.7709 40.6975 13.6347 40.7859 13.4851 40.845C13.3356 40.9042 13.1757 40.9328 13.0149 40.9294H7.86623C7.5459 40.9294 7.2387 40.8021 7.01219 40.5756C6.78569 40.3491 6.65844 40.0419 6.65844 39.7216V18.1116C6.65776 17.9525 6.68849 17.7949 6.74888 17.6478C6.80927 17.5007 6.89813 17.3669 7.01035 17.2542C7.12257 17.1415 7.25595 17.052 7.40282 16.991C7.5497 16.93 7.70718 16.8986 7.86623 16.8986H13.0149C13.174 16.8986 13.3315 16.93 13.4783 16.991C13.6252 17.052 13.7586 17.1415 13.8708 17.2542C13.983 17.3669 14.0719 17.5007 14.1323 17.6478C14.1927 17.7949 14.2234 17.9525 14.2227 18.1116L14.2488 39.7216ZM10.4484 14.8631C9.47928 14.8641 8.53163 14.5777 7.72534 14.04C6.91904 13.5023 6.29034 12.7376 5.91876 11.8425C5.54718 10.9475 5.44943 9.96234 5.63786 9.01172C5.82629 8.0611 6.29245 7.18772 6.97735 6.50209C7.66226 5.81646 8.53514 5.34937 9.48556 5.15993C10.436 4.97048 11.4212 5.06719 12.3167 5.43782C13.2121 5.80845 13.9775 6.43634 14.516 7.24206C15.0546 8.04778 15.342 8.99512 15.342 9.96424C15.342 11.2626 14.8266 12.5078 13.909 13.4264C12.9914 14.3449 11.7467 14.8617 10.4484 14.8631ZM41.1636 39.8153C41.1638 40.1046 41.0514 40.3825 40.8503 40.5905C40.6492 40.7984 40.3751 40.9199 40.086 40.9294H34.526C34.2306 40.9294 33.9472 40.812 33.7383 40.6031C33.5293 40.3941 33.4119 40.1108 33.4119 39.8153V29.6741C33.4119 28.1643 33.8597 23.0521 29.4606 23.0521C26.0559 23.0521 25.3635 26.5505 25.2229 28.1227V39.8153C25.2229 40.1108 25.1056 40.3941 24.8966 40.6031C24.6877 40.812 24.4043 40.9294 24.1089 40.9294H18.7415C18.446 40.9294 18.1627 40.812 17.9537 40.6031C17.7448 40.3941 17.6274 40.1108 17.6274 39.8153V18.0127C17.6274 17.7172 17.7448 17.4338 17.9537 17.2249C18.1627 17.016 18.446 16.8986 18.7415 16.8986H24.1089C24.4043 16.8986 24.6877 17.016 24.8966 17.2249C25.1056 17.4338 25.2229 17.7172 25.2229 18.0127V19.8972C26.488 18.0023 28.3465 16.5394 32.3655 16.5394C41.2157 16.5394 41.1741 24.8117 41.1741 29.3565V39.8153H41.1636Z" fill="white"/>
</g>
<defs>
<clipPath id="clip0_22_520">
<rect width="46" height="46" fill="white"/>
</clipPath>
</defs>
</svg>
