<svg width="14" height="15" viewBox="0 0 14 15" fill="none" xmlns="http://www.w3.org/2000/svg">
<path d="M5.07932 2.00051C5.07932 3.10561 5.96684 4.00102 7.0622 4.00102C8.15756 4.00102 9.04508 3.10561 9.04508 2.00051C9.04508 0.895408 8.15605 0 7.0622 0C5.96684 0 5.07932 0.895408 5.07932 2.00051ZM9.28478 3.75765C9.28478 4.86276 10.1723 5.75816 11.2677 5.75816C12.363 5.75816 13.2505 4.86276 13.2505 3.75765C13.2505 2.65255 12.363 1.75714 11.2677 1.75714C10.1723 1.75714 9.28478 2.65255 9.28478 3.75765ZM12.0186 8.00051C12.0186 8.55306 12.4632 9 13.0093 9C13.557 9 14 8.55153 14 8.00051C14 7.44796 13.5555 7.00102 13.0093 7.00102C12.4616 6.99949 12.0186 7.44796 12.0186 8.00051ZM10.2755 12.2434C10.2755 12.7959 10.72 13.2429 11.2661 13.2429C11.8138 13.2429 12.2568 12.7944 12.2568 12.2434C12.2568 11.6908 11.8123 11.2439 11.2661 11.2439C10.72 11.2423 10.2755 11.6908 10.2755 12.2434ZM6.07152 14.0005C6.07152 14.5531 6.51604 15 7.0622 15C7.60988 15 8.05288 14.5515 8.05288 14.0005C8.05288 13.448 7.60837 13.001 7.0622 13.001C6.51452 12.9995 6.07152 13.448 6.07152 14.0005ZM1.86606 12.2434C1.86606 12.7959 2.31058 13.2429 2.85674 13.2429C3.40442 13.2429 3.84742 12.7944 3.84742 12.2434C3.84742 11.6908 3.4029 11.2439 2.85674 11.2439C2.30906 11.2423 1.86606 11.6908 1.86606 12.2434ZM1.36996 3.75765C1.36996 4.58571 2.03598 5.25765 2.85674 5.25765C3.6775 5.25765 4.34352 4.58571 4.34352 3.75765C4.34352 2.92959 3.6775 2.25765 2.85674 2.25765C2.03598 2.25765 1.36996 2.92959 1.36996 3.75765ZM0 8.00051C0 8.62194 0.499133 9.12551 1.11508 9.12551C1.73104 9.12551 2.23017 8.62194 2.23017 8.00051C2.23017 7.37908 1.73104 6.87551 1.11508 6.87551C0.499133 6.87551 0 7.37908 0 8.00051Z" fill="#153842"/>
</svg>
