<svg width="198" height="59" viewBox="0 0 198 59" fill="none" xmlns="http://www.w3.org/2000/svg">
<g filter="url(#filter0_d_43_2260)">
<rect x="-86" y="-20" width="1392" height="100" rx="10" fill="white"/>
</g>
<g clip-path="url(#clip0_43_2260)">
<path d="M178.352 7.81116C178.696 8.2846 178.383 9.76743 178.756 9.72499C179.129 9.68256 180.382 7.24394 179.962 6.40203C179.542 5.56013 176.572 4.58423 176.067 4.55073C174.058 4.42791 173.468 6.03802 173.231 7.32433C173.126 7.90496 171.221 12.0788 171.306 11.9515L175.266 7.48512C175.951 6.7973 177.861 7.14345 178.352 7.82233V7.81116ZM159.06 41.1123C158.908 41.4785 158.416 40.8889 158.571 40.4847C158.611 40.3686 159.218 39.0421 160.547 39.3213C160.918 39.4016 159.542 39.9264 159.06 41.1078V41.1123ZM179.982 21.3219C180.875 20.7948 183.524 16.6679 183.616 16.8868C183.793 17.5994 183.777 18.3464 183.569 19.0507C183.185 20.0959 179.982 21.3219 179.982 21.3219ZM185.181 12.2954C185.101 12.0922 187.495 16.6277 187.021 18.6331C186.262 21.8109 183.426 24.0061 183.426 24.0061C183.426 24.0061 184.788 21.4023 184.989 20.94C185.19 20.4777 186.552 15.7456 185.183 12.2954H185.181ZM191.936 14.9171C193.366 17.3736 191.4 20.1562 190.969 20.5559C190.488 20.9352 189.963 21.256 189.406 21.5117C190.264 20.7144 191.061 19.7251 191.287 18.5661C191.512 17.4071 191.141 16.2057 190.527 14.8814C190.409 14.629 188.238 11.4289 188.044 11.2436C188.408 11.3038 191.197 13.2869 191.927 14.9171H191.936ZM192.834 20.6899C194.056 19.5005 194.822 17.9198 194.998 16.2235C195.335 17.9274 194.364 20.3728 193.582 21.4827C192.942 21.5194 192.304 21.594 191.673 21.706C192.12 21.4603 192.417 21.1298 192.834 20.7055V20.6899ZM184.857 32.4207C182.215 35.8018 177.765 35.6678 174.728 36.8871C171.19 38.294 168.772 40.7862 168.135 41.4204C167.048 42.5013 165.663 42.2221 164.924 42.1775C164.185 42.1328 163.457 41.7554 163.157 41.7018C162.821 41.6729 162.483 41.6781 162.148 41.7174C162.157 41.6185 162.186 41.5224 162.234 41.4355C162.282 41.3485 162.348 41.2727 162.427 41.2127C162.688 41.0453 163.213 40.9894 164.142 40.8063C164.868 40.6312 165.551 40.3131 166.152 39.8706C166.525 39.6294 166.284 39.5513 166.036 39.6116C165.29 39.8558 164.524 40.0366 163.747 40.152C162.443 40.3396 162.032 40.2436 161.525 40.583C161.018 40.9224 161.136 41.7755 161.023 42.0167C160.909 42.2579 160.817 42.3159 160.652 42.1641C160.487 42.0122 160.413 41.4383 160.54 40.9537C160.667 40.4691 161.433 40.0805 162.141 39.9063C162.849 39.7322 164.375 39.6428 166.018 38.7719C170.893 36.1859 173.035 34.2452 177.345 30.92C181.934 27.3827 186.021 25.4354 189.236 23.8744C191.22 22.9119 197.106 22.1928 197.106 22.1928C196.586 21.8522 196 21.624 195.387 21.5229C194.876 21.4656 194.362 21.4447 193.848 21.4603C194.645 21.0271 196.698 19.4505 196.997 17.4138C197.396 14.696 193.797 12.4562 193.743 9.98181C193.627 4.23139 187.852 3.42075 188.118 3.58377C189.203 4.25372 190.313 5.54449 190.521 6.29484C190.893 7.65038 189.75 9.1332 188.064 9.6915C187.267 9.95948 182.832 10.9309 182.24 11.5294C181.648 12.1279 182.865 15.261 182.081 16.5272C181.298 17.7935 176.896 19.982 176.373 20.5939C176.226 20.7797 176.027 20.9179 175.801 20.991C175.576 21.0641 175.333 21.0689 175.105 21.0048C174.922 20.9824 175.069 21.2281 175.61 21.3397C176.15 21.4514 177.084 21.1343 177.619 20.8373C178.155 20.5403 178.917 21.1812 178.881 21.5898C178.846 21.9985 178.334 22.1236 177.338 22.7466C176.543 23.2491 174.299 21.8534 174.109 21.3755C173.919 20.8976 174.582 21.0628 174.989 20.5559C175.395 20.049 174.692 19.9775 174.431 20.0534C174.169 20.1294 174.017 19.9976 173.761 19.9239C173.628 19.8865 173.488 19.8843 173.355 19.9176C173.221 19.9509 173.098 20.0185 172.999 20.1137C172.832 20.2968 172.999 20.4442 172.383 20.5224C171.766 20.6006 172.05 19.8524 172.177 19.0485C172.305 18.2446 172.814 16.1208 172.722 15.8439C172.631 15.567 172.604 15.6742 172.383 15.4129C172.162 15.1516 172.142 14.6826 172.119 13.9211C172.097 13.1596 172.157 11.7393 172.157 11.7393C171.812 12.3224 171.585 12.9672 171.487 13.6375C171.284 14.8524 172.121 15.5268 172.144 15.7099C172.166 15.893 172.121 16.3419 171.753 18.488C171.384 20.6341 171.842 21.0427 172.311 21.4179C172.78 21.7931 174.868 22.8717 174.868 22.8717L174.828 23.8409C174.123 24.0845 173.448 24.4098 172.818 24.8101C171.836 25.4421 171.478 26.5765 171.398 26.9517C171.317 27.3269 171.53 27.2688 171.53 27.2688C171.843 26.9686 172.175 26.6881 172.523 26.4291C173.28 25.8373 174.958 25.5135 175.165 25.4979C175.373 25.4823 175.389 25.5537 175.125 25.7413C174.862 25.9289 174.176 26.4291 172.707 27.5279C171.237 28.6266 171.027 30.0067 171.027 30.3283C171.027 30.6498 171.235 30.3841 171.235 30.3841C171.407 30.0302 171.648 29.7138 171.943 29.4529C172.441 28.9839 173.582 28.7047 174.846 28.4993C176.11 28.2938 176.318 27.979 176.708 27.3983C177.2 26.7418 177.764 26.1426 178.39 25.6118C178.613 25.489 178.669 25.5582 178.537 25.6498C178.406 25.7413 178.336 25.8195 177.66 26.543C177.255 26.9864 176.984 27.5354 176.878 28.1264C177.219 27.708 177.621 27.3429 178.071 27.0433C178.895 26.4604 180.884 25.8128 181.42 25.6833C181.956 25.5537 181.903 25.6252 181.811 25.7011C181.578 25.8501 181.334 25.9807 181.081 26.0919C179.243 27.1434 177.473 28.31 175.782 29.5846C173.048 31.6101 170.813 33.9549 168.62 35.5874C166.427 37.2198 164.779 37.9345 163.93 38.0863C163.082 38.2382 162.068 37.7335 160.804 37.6732C160.378 37.6621 159.955 37.7455 159.566 37.9174C159.176 38.0892 158.829 38.3452 158.55 38.6669C158.414 38.8501 158.414 39.0175 158.528 38.9997C158.642 38.9818 158.845 38.7563 159.033 38.7563C159.22 38.7563 159.202 38.8679 159.202 38.8679C159.202 38.8679 159.111 38.9059 158.756 39.0912C158.201 39.4435 157.792 39.9844 157.604 40.6143C157.342 41.4093 157.952 42.5995 157.952 42.5995C158.275 42.6167 158.593 42.6923 158.89 42.8229C159.284 42.9759 159.67 43.1511 160.044 43.3477C160.301 43.4951 160.565 43.5308 161.103 43.3879C161.641 43.2449 162.747 43.2315 163.506 43.274C164.265 43.3164 167.251 44.0332 169.154 42.7916C175.123 37.5503 181.373 37.9992 183.618 37.2087C188.218 35.536 187.461 29.3233 195.554 30.2613C195.204 29.368 188.87 27.3313 184.886 32.4096L184.857 32.4207ZM183.435 2.45825C186.099 3.32249 186.691 5.62042 185.768 6.67448C185.252 7.25734 184.67 7.60795 183.327 8.44092C182.532 8.92178 181.767 9.45053 181.036 10.0242C180.612 10.3547 180.366 10.8103 181.302 10.5647C181.396 10.5379 187.039 9.32302 187.778 8.94115C189.006 8.30693 189.341 7.85806 189.547 7.03179C189.752 6.20551 188.473 4.83211 187.874 4.15323C186.671 2.78652 183.801 1.33943 183.674 1.32603C182.231 0.841429 180.462 1.23893 179.024 1.3104C178.868 1.3104 178.924 1.55158 179.006 1.61634C180.29 2.50961 181.863 2.08531 183.437 2.45825H183.435ZM167.278 19.5487C167.577 19.7854 168.171 20.8574 168.093 20.6921C168.015 20.5269 168.334 19.5264 167.662 18.3004C166.99 17.0744 166.786 16.6255 166.494 15.3973C166.201 14.169 165.674 13.1462 166.552 12.3825C167.466 11.5896 168.113 10.5335 168.403 9.35876C168.685 8.1908 169.622 7.27297 170.672 5.99336C171.722 4.71375 171.929 4.53733 171.929 4.53733C171.681 4.87454 171.192 6.23008 170.96 6.94469C170.728 7.65931 169.582 9.22476 169.066 10.0533C168.551 10.8818 167.38 12.4919 167.28 13.9948C167.179 15.4977 168.419 17.2798 168.602 17.9297C168.785 18.5795 168.356 20.4465 168.803 21.7685C169.25 23.0905 170.498 24.3322 170.721 24.493C170.945 24.6538 170.895 24.493 170.819 24.3992C170.596 24.1466 170.419 23.8562 170.297 23.5416C169.998 22.9074 170.132 22.2017 170.342 21.237C170.566 20.3558 170.642 19.4432 170.565 18.5371C170.476 17.5768 169.705 15.9444 169.468 14.9506C169.232 13.9569 169.839 12.9787 170.833 11.2838C171.827 9.58877 171.978 8.15731 172.11 7.09655C172.242 6.03579 172.818 4.54403 174.404 3.88525C175.317 3.50561 177.867 4.02594 179.201 4.86114C180.141 5.48643 180.601 6.07376 180.73 6.73701C180.887 7.52085 180.413 8.05905 180.116 8.83173C179.819 9.6044 179.614 10.4887 179.951 10.4552C180.243 10.424 183.678 7.54095 184.449 6.70574C184.828 6.29037 185.342 5.22292 184.612 4.26935C183.986 3.43861 179.527 3.07014 178.665 1.87092C177.896 0.812398 175.92 0.868227 175.339 1.2568C174.812 1.61634 173.624 2.6101 172.481 3.00984C171.338 3.40958 170.138 3.59493 168.584 4.38324C167.03 5.17155 167.088 6.09832 166.925 6.77274C166.762 7.44716 166.63 9.2538 165.362 11.1855C164.093 13.1172 164.826 14.4504 165.451 16.4089C166.076 18.3674 166.976 19.312 167.278 19.5353V19.5487ZM175.732 18.5349C175.701 18.7582 175.922 18.5572 176.103 18.3116C176.284 18.0659 176.985 16.9002 178.113 14.9462C179.241 12.9921 179.931 11.3105 179.864 11.2681C179.797 11.2257 179.627 11.3865 179.448 11.5227C179.128 11.787 178.838 12.0866 178.584 12.416C178.274 12.8068 178.017 12.7733 177.626 12.8492C177.235 12.9251 176.51 13.7112 176.103 14.0395C175.676 14.3958 175.171 14.6474 174.629 14.7742C174.08 14.8635 173.986 14.6201 173.752 14.6625C173.517 14.705 173.528 15.0891 173.606 15.3593C173.685 15.6295 173.62 15.7456 173.575 16.2168C173.531 16.688 173.866 17.1548 174.147 17.425C174.428 17.6952 174.346 18.1083 174.522 18.2513C174.699 18.3942 174.772 17.4339 174.772 16.8399C174.772 16.2459 174.638 15.6697 174.661 15.5804C174.683 15.4911 175.152 15.3571 175.373 15.2186C175.594 15.0801 176.15 14.6849 176.411 14.5487C176.673 14.4124 176.686 14.5152 176.619 14.6692C176.498 14.9205 176.322 15.1412 176.103 15.3146C175.749 15.5541 175.348 15.7148 174.926 15.7858C174.768 15.797 174.781 15.9355 174.94 16.0583C175.098 16.1811 175.494 16.1789 175.846 16.0918C176.199 16.0047 176.157 16.4602 176.112 16.9515C176.067 17.4428 175.766 18.3294 175.732 18.5483" fill="#323646"/>
<path d="M1.01343 6.37524H5.81029L8.68885 10.5602L11.5674 6.37524H16.3665L10.6898 14.3767V21.7685H6.68792V14.3767L1.01343 6.37524Z" fill="#323646"/>
<path d="M20.6743 13.8074C20.6743 16.4604 22.6328 18.3988 25.0223 18.3988C27.4118 18.3988 29.3613 16.4604 29.3613 13.8074C29.3613 11.6837 27.4006 9.74304 25.0133 9.74304C22.6261 9.74304 20.6743 11.6837 20.6743 13.8074ZM33.5351 13.7851C33.5351 18.7673 29.962 22.2711 25.0223 22.2711C20.0825 22.2711 16.5094 18.7606 16.5094 13.7851C16.5094 9.13115 20.5916 5.86401 25.0223 5.86401C29.4529 5.86401 33.5351 9.13115 33.5351 13.7851Z" fill="#323646"/>
<path d="M48.7453 6.37524V15.031C48.7453 17.0119 48.6627 18.9726 47.1329 20.4621C45.8466 21.7283 43.8256 22.1772 42.0279 22.1772C40.2302 22.1772 38.2114 21.7305 36.9251 20.4621C35.3931 18.9726 35.3127 17.0119 35.3127 15.031V6.37524H39.3124V14.4794C39.3124 16.4893 39.4553 18.6644 42.0279 18.6644C44.6005 18.6644 44.7434 16.4804 44.7434 14.4794V6.37524H48.7453Z" fill="#323646"/>
<path d="M51.2777 6.37524H55.2796L62.6066 15.7858H62.649V6.37524H66.6486V21.7685H62.649L55.3198 12.3356H55.2796V21.7685H51.2777V6.37524Z" fill="#323646"/>
<path d="M84.6145 13.1732C84.5743 15.4197 84.4113 17.338 83.0513 19.2563C81.5395 21.36 79.2728 22.28 76.7002 22.28C71.8631 22.28 68.4955 18.9928 68.4955 14.1535C68.4955 9.15121 71.8832 5.86621 76.8431 5.86621C80.0075 5.86621 82.4595 7.29321 83.786 10.1718L79.9896 11.7663C79.4403 10.2946 78.2768 9.30977 76.6622 9.30977C74.0248 9.31423 72.6537 11.8266 72.6537 14.1759C72.6537 16.5653 74.0807 18.995 76.7158 18.995C78.451 18.995 79.7775 18.1018 79.9405 16.3152H76.6734V13.1732H84.6145Z" fill="#323646"/>
<path d="M95.4164 18.3786H100.213V21.7685H91.4146V6.37524H95.4164V18.3786Z" fill="#323646"/>
<path d="M105.524 6.37524H101.522V21.7685H105.524V6.37524Z" fill="#323646"/>
<path d="M111.524 13.8074C111.524 16.4604 113.483 18.3988 115.872 18.3988C118.262 18.3988 120.22 16.4604 120.22 13.8074C120.22 11.6837 118.262 9.74304 115.872 9.74304C113.483 9.74304 111.524 11.6837 111.524 13.8074ZM124.385 13.7851C124.385 18.7673 120.812 22.2711 115.872 22.2711C110.932 22.2711 107.359 18.7606 107.359 13.7851C107.359 9.13115 111.444 5.86401 115.872 5.86401C120.301 5.86401 124.385 9.13115 124.385 13.7851Z" fill="#323646"/>
<path d="M126.245 6.37524H130.245L137.574 15.7858H137.614V6.37524H141.616V21.7685H137.614L130.285 12.3356H130.245V21.7685H126.245V6.37524Z" fill="#323646"/>
<path d="M152.682 10.3346C151.942 9.69713 151.005 9.33637 150.029 9.31408C149.294 9.31408 148.314 9.74285 148.314 10.6004C148.314 11.4937 149.394 11.8465 150.1 12.0721L151.11 12.3892C153.253 13.0212 154.906 14.102 154.906 16.5942C154.906 18.1262 154.537 19.6961 153.314 20.739C152.09 21.7819 150.495 22.1883 148.946 22.1883C147.005 22.1673 145.118 21.5533 143.537 20.4286L145.263 17.195C146.261 18.0748 147.447 18.7872 148.816 18.7872C149.754 18.7872 150.754 18.3182 150.754 17.224C150.754 16.1074 149.191 15.7144 148.325 15.4687C145.804 14.7653 144.147 14.1109 144.147 11.1319C144.147 8.00544 146.38 5.96655 149.455 5.96655C151.139 5.99603 152.791 6.43033 154.272 7.23276L152.682 10.3346Z" fill="#323646"/>
<path d="M14.399 29.9463C13.7545 29.2705 12.9812 28.7306 12.1248 28.3582C11.2684 27.9858 10.3462 27.7885 9.41237 27.7779C5.76783 27.7779 2.8178 30.9445 2.8178 34.5444C2.8178 38.1443 5.79016 41.3109 9.4548 41.3109C11.2972 41.3109 13.0971 40.4422 14.399 39.1425V41.3958C12.9798 42.4268 11.2737 42.9882 9.51956 43.0014C4.90582 43.0014 1 39.2497 1 34.6092C1.00824 32.351 1.90895 30.1877 3.50573 28.5909C5.10251 26.9941 7.26585 26.0934 9.52402 26.0852C11.2826 26.0621 12.9984 26.6272 14.399 27.6908V29.9463Z" fill="#323646"/>
<path d="M18.4813 34.5444C18.4945 35.8665 18.8986 37.1551 19.6428 38.248C20.3869 39.3409 21.4378 40.1892 22.6631 40.686C23.8884 41.1828 25.2333 41.3059 26.5284 41.0399C27.8235 40.7739 29.011 40.1306 29.9413 39.1911C30.8715 38.2515 31.503 37.0577 31.7561 35.76C32.0092 34.4623 31.8727 33.1187 31.3637 31.8984C30.8547 30.6781 29.996 29.6357 28.8958 28.9025C27.7956 28.1692 26.503 27.778 25.1808 27.7779C23.3975 27.7944 21.6929 28.5147 20.4381 29.782C19.1833 31.0493 18.48 32.761 18.4813 34.5444ZM33.7048 34.5645C33.7123 36.2521 33.2188 37.9039 32.2866 39.3107C31.3545 40.7175 30.0257 41.816 28.4687 42.4669C26.9117 43.1178 25.1965 43.2919 23.5404 42.9671C21.8844 42.6424 20.362 41.8333 19.1662 40.6425C17.9704 39.4517 17.1549 37.9327 16.8232 36.2781C16.4914 34.6234 16.6583 32.9075 17.3027 31.3477C17.9471 29.788 19.0399 28.4546 20.4428 27.5166C21.8457 26.5785 23.4954 26.078 25.183 26.0784C26.3004 26.0737 27.4078 26.2898 28.4415 26.7141C29.4752 27.1385 30.4149 27.7628 31.2067 28.5513C31.9985 29.3398 32.6268 30.2768 33.0555 31.3088C33.4842 32.3407 33.7048 33.4471 33.7048 34.5645Z" fill="#323646"/>
<path d="M38.303 25.4353L44.2454 39.1626L50.2102 25.4353L53.5265 42.7201H51.664L49.5581 31.6592H49.5157L44.2454 43.3923L38.9975 31.6592H38.955L36.8492 42.7201H34.9867L38.303 25.4353Z" fill="#323646"/>
<path d="M57.4324 33.8724H58.6472C60.6571 33.8724 62.3766 33.2649 62.3766 30.9223C62.3766 28.2559 60.2283 28.0594 58.1046 28.0594H57.4346L57.4324 33.8724ZM57.4324 42.7202H55.6101V26.3689H58.2899C59.699 26.3689 61.1528 26.4113 62.3454 27.2354C62.9318 27.6623 63.4066 28.2244 63.7293 28.8741C64.052 29.5238 64.2131 30.2417 64.1989 30.967C64.2079 31.6307 64.0728 32.2885 63.8029 32.895C63.533 33.5015 63.1348 34.0422 62.6357 34.4798C61.5302 35.3887 60.1211 35.5629 58.7544 35.5629H57.4324V42.7202Z" fill="#323646"/>
<path d="M66.5192 26.3689H74.9985V28.0594H68.3414V32.9188H74.802V34.6093H68.3414V41.0275H74.9985V42.7202H66.5192V26.3689Z" fill="#323646"/>
<path d="M82.4372 42.7202H80.6149V28.0594H76.6666V26.3689H86.4278V28.0594H82.4372V42.7202Z" fill="#323646"/>
<path d="M90.1572 26.3689H88.335V42.7202H90.1572V26.3689Z" fill="#323646"/>
<path d="M97.8148 42.7202H95.9925V28.0594H92.0465V26.3689H101.803V28.0594H97.8148V42.7202Z" fill="#323646"/>
<path d="M105.535 26.3689H103.713V42.7202H105.535V26.3689Z" fill="#323646"/>
<path d="M109.849 34.5444C109.863 35.8665 110.267 37.1552 111.011 38.248C111.755 39.3409 112.806 40.1892 114.031 40.686C115.256 41.1828 116.601 41.306 117.896 41.0399C119.192 40.7739 120.379 40.1306 121.309 39.1911C122.24 38.2515 122.871 37.0577 123.124 35.76C123.377 34.4623 123.241 33.1187 122.732 31.8984C122.223 30.6781 121.364 29.6357 120.264 28.9025C119.164 28.1693 117.871 27.778 116.549 27.7779C114.765 27.7944 113.061 28.5147 111.806 29.782C110.551 31.0493 109.848 32.761 109.849 34.5444ZM125.075 34.5645C125.083 36.252 124.589 37.9038 123.657 39.3105C122.725 40.7173 121.396 41.8157 119.839 42.4667C118.283 43.1177 116.567 43.2919 114.911 42.9673C113.255 42.6427 111.733 41.8339 110.537 40.6433C109.341 39.4527 108.526 37.934 108.194 36.2794C107.862 34.6249 108.028 32.9091 108.672 31.3493C109.316 29.7895 110.409 28.456 111.811 27.5177C113.214 26.5794 114.864 26.0785 116.551 26.0785C117.669 26.0735 118.776 26.2893 119.81 26.7135C120.844 27.1377 121.784 27.762 122.576 28.5505C123.368 29.339 123.997 30.2762 124.426 31.3082C124.854 32.3403 125.075 33.4469 125.075 34.5645Z" fill="#323646"/>
<path d="M127.657 25.6743L140.408 39.0332V26.3688H142.23V43.4593L129.477 30.1206V42.7201H127.657V25.6743Z" fill="#323646"/>
<path d="M153.052 29.5579C152.4 28.4279 151.619 27.7713 150.232 27.7713C148.778 27.7713 147.521 28.812 147.521 30.3082C147.521 31.7196 148.975 32.3694 150.08 32.8674L151.165 33.3453C153.289 34.2743 155.089 35.3462 155.089 37.9479C155.089 40.8108 152.789 43.0016 149.953 43.0016C147.329 43.0016 145.377 41.311 144.854 38.7719L146.641 38.2739C146.88 39.9443 148.159 41.311 149.917 41.311C151.674 41.311 153.278 39.9711 153.278 38.1221C153.278 36.2149 151.782 35.5629 150.263 34.8683L149.265 34.4351C147.349 33.5686 145.71 32.5927 145.71 30.2546C145.71 27.7177 147.856 26.0897 150.285 26.0897C151.156 26.0786 152.013 26.3103 152.76 26.7588C153.507 27.2073 154.114 27.8548 154.513 28.6289L153.052 29.5579Z" fill="#323646"/>
<path d="M154.966 45.6567H1.79944V46.1771H154.966V45.6567Z" fill="#323646"/>
<path d="M2.14118 50.1411L4.02821 54.871L5.94204 50.1411H7.05863L4.00588 57.4793L1.01343 50.1411H2.14118Z" fill="#323646"/>
<path d="M9.17338 50.1411V56.9657H8.14612V50.1411H9.17338Z" fill="#323646"/>
<path d="M14.8055 51.1103H12.0699V52.7495H14.7274V53.7164H12.0699V55.9987H14.8055V56.9657H11.0493V50.1411H14.8055V51.1103Z" fill="#323646"/>
<path d="M18.2669 51.1103V56.9657H17.2374V51.1103H15.6742V50.1411H19.8324V51.1103H18.2669Z" fill="#323646"/>
<path d="M20.978 56.9657V49.6833L25.9535 54.8911V50.1412H26.9853V57.3811L22.0075 52.189V56.9657H20.978Z" fill="#323646"/>
<path d="M32.854 55.3085H29.933L29.1737 56.9655H28.0571L31.4337 49.7122L34.6919 56.9655H33.5641L32.854 55.3085ZM32.4341 54.3393L31.4225 52.0213L30.3618 54.3393H32.4341Z" fill="#323646"/>
<path d="M35.5383 56.9656L36.9743 49.6296L39.3169 54.9334L41.7443 49.6296L43.0351 56.9656H41.9788L41.32 52.8476L39.3102 57.2805L37.3472 52.8432L36.6125 56.9656H35.5383Z" fill="#323646"/>
<path d="M129.555 56.8894H131.462V58.1714H126.783L129.159 55.5847C129.601 55.1021 129.822 54.6257 129.822 54.1556C129.822 53.9596 129.762 53.7861 129.641 53.6353C129.513 53.4769 129.352 53.3977 129.159 53.3977C128.96 53.3977 128.803 53.4681 128.687 53.6089C128.579 53.7396 128.525 53.9068 128.525 54.1104C128.525 54.1883 128.534 54.27 128.552 54.3555H126.881C126.906 53.6743 127.121 53.1313 127.526 52.7266C127.931 52.3193 128.472 52.1157 129.151 52.1157C129.782 52.1157 130.309 52.3005 130.731 52.67C131.176 53.0596 131.398 53.5649 131.398 54.1858C131.398 54.5754 131.315 54.9211 131.15 55.2227C131.014 55.4666 130.782 55.7418 130.456 56.0485L129.555 56.8894Z" fill="#323646"/>
<path d="M134.475 52.1157C135.28 52.1157 135.908 52.4513 136.361 53.1225C136.753 53.7057 136.949 54.4183 136.949 55.2604C136.949 56.1076 136.754 56.8202 136.364 57.3984C135.914 58.0671 135.285 58.4014 134.475 58.4014C133.668 58.4014 133.04 58.0671 132.59 57.3984C132.2 56.8202 132.005 56.1076 132.005 55.2604C132.005 54.4183 132.202 53.7057 132.594 53.1225C133.046 52.4513 133.673 52.1157 134.475 52.1157ZM134.475 53.4543C134.133 53.4543 133.876 53.6831 133.702 54.1406C133.574 54.4774 133.51 54.8482 133.51 55.2529C133.51 55.6576 133.574 56.0309 133.702 56.3728C133.876 56.8353 134.133 57.0666 134.475 57.0666C134.82 57.0666 135.079 56.8353 135.252 56.3728C135.378 56.0359 135.441 55.6627 135.441 55.2529C135.441 54.8432 135.378 54.4724 135.252 54.1406C135.079 53.6831 134.82 53.4543 134.475 53.4543Z" fill="#323646"/>
<path d="M140.158 56.8894H142.066V58.1714H137.386L139.762 55.5847C140.204 55.1021 140.425 54.6257 140.425 54.1556C140.425 53.9596 140.365 53.7861 140.244 53.6353C140.116 53.4769 139.955 53.3977 139.762 53.3977C139.563 53.3977 139.406 53.4681 139.29 53.6089C139.182 53.7396 139.128 53.9068 139.128 54.1104C139.128 54.1883 139.137 54.27 139.155 54.3555H137.484C137.509 53.6743 137.724 53.1313 138.129 52.7266C138.534 52.3193 139.075 52.1157 139.754 52.1157C140.385 52.1157 140.912 52.3005 141.334 52.67C141.779 53.0596 142.001 53.5649 142.001 54.1858C142.001 54.5754 141.919 54.9211 141.753 55.2227C141.617 55.4666 141.386 55.7418 141.059 56.0485L140.158 56.8894Z" fill="#323646"/>
<path d="M145.459 56.8894H147.367V58.1714H142.688L145.063 55.5847C145.506 55.1021 145.727 54.6257 145.727 54.1556C145.727 53.9596 145.667 53.7861 145.546 53.6353C145.418 53.4769 145.257 53.3977 145.063 53.3977C144.865 53.3977 144.708 53.4681 144.592 53.6089C144.484 53.7396 144.43 53.9068 144.43 54.1104C144.43 54.1883 144.439 54.27 144.456 54.3555H142.786C142.811 53.6743 143.026 53.1313 143.431 52.7266C143.835 52.3193 144.377 52.1157 145.056 52.1157C145.687 52.1157 146.213 52.3005 146.636 52.67C147.081 53.0596 147.303 53.5649 147.303 54.1858C147.303 54.5754 147.22 54.9211 147.054 55.2227C146.918 55.4666 146.687 55.7418 146.36 56.0485L145.459 56.8894Z" fill="#323646"/>
</g>
<defs>
<filter id="filter0_d_43_2260" x="-101" y="-31" width="1422" height="130" filterUnits="userSpaceOnUse" color-interpolation-filters="sRGB">
<feFlood flood-opacity="0" result="BackgroundImageFix"/>
<feColorMatrix in="SourceAlpha" type="matrix" values="0 0 0 0 0 0 0 0 0 0 0 0 0 0 0 0 0 0 127 0" result="hardAlpha"/>
<feOffset dy="4"/>
<feGaussianBlur stdDeviation="7.5"/>
<feComposite in2="hardAlpha" operator="out"/>
<feColorMatrix type="matrix" values="0 0 0 0 0.203922 0 0 0 0 0.219608 0 0 0 0 0.27451 0 0 0 0.2 0"/>
<feBlend mode="normal" in2="BackgroundImageFix" result="effect1_dropShadow_43_2260"/>
<feBlend mode="normal" in="SourceGraphic" in2="effect1_dropShadow_43_2260" result="shape"/>
</filter>
<clipPath id="clip0_43_2260">
<rect width="399.068" height="58" fill="white" transform="translate(1 1)"/>
</clipPath>
</defs>
</svg>
