<svg width="400" height="58" viewBox="0 0 400 58" fill="none" xmlns="http://www.w3.org/2000/svg">
<g clip-path="url(#clip0_43_2322)">
<path d="M177.352 6.81116C177.696 7.2846 177.383 8.76743 177.756 8.72499C178.129 8.68256 179.382 6.24394 178.962 5.40203C178.542 4.56013 175.572 3.58423 175.067 3.55073C173.058 3.42791 172.468 5.03802 172.231 6.32433C172.126 6.90496 170.221 11.0788 170.306 10.9515L174.266 6.48512C174.951 5.7973 176.861 6.14345 177.352 6.82233V6.81116ZM158.06 40.1123C157.908 40.4785 157.416 39.8889 157.571 39.4847C157.611 39.3686 158.218 38.0421 159.547 38.3213C159.918 38.4016 158.542 38.9264 158.06 40.1078V40.1123ZM178.982 20.3219C179.875 19.7948 182.524 15.6679 182.616 15.8868C182.793 16.5994 182.777 17.3464 182.569 18.0507C182.185 19.0959 178.982 20.3219 178.982 20.3219ZM184.181 11.2954C184.101 11.0922 186.495 15.6277 186.021 17.6331C185.262 20.8109 182.426 23.0061 182.426 23.0061C182.426 23.0061 183.788 20.4023 183.989 19.94C184.19 19.4777 185.552 14.7456 184.183 11.2954H184.181ZM190.936 13.9171C192.366 16.3736 190.4 19.1562 189.969 19.5559C189.488 19.9352 188.963 20.256 188.406 20.5117C189.264 19.7144 190.061 18.7251 190.287 17.5661C190.512 16.4071 190.141 15.2057 189.527 13.8814C189.409 13.629 187.238 10.4289 187.044 10.2436C187.408 10.3038 190.197 12.2869 190.927 13.9171H190.936ZM191.834 19.6899C193.056 18.5005 193.822 16.9198 193.998 15.2235C194.335 16.9274 193.364 19.3728 192.582 20.4827C191.942 20.5194 191.304 20.594 190.673 20.706C191.12 20.4603 191.417 20.1298 191.834 19.7055V19.6899ZM183.857 31.4207C181.215 34.8018 176.765 34.6678 173.728 35.8871C170.19 37.294 167.772 39.7862 167.135 40.4204C166.048 41.5013 164.663 41.2221 163.924 41.1775C163.185 41.1328 162.457 40.7554 162.157 40.7018C161.821 40.6729 161.483 40.6781 161.148 40.7174C161.157 40.6185 161.186 40.5224 161.234 40.4355C161.282 40.3485 161.348 40.2727 161.427 40.2127C161.688 40.0453 162.213 39.9894 163.142 39.8063C163.868 39.6312 164.551 39.3131 165.152 38.8706C165.525 38.6294 165.284 38.5513 165.036 38.6116C164.29 38.8558 163.524 39.0366 162.747 39.152C161.443 39.3396 161.032 39.2436 160.525 39.583C160.018 39.9224 160.136 40.7755 160.023 41.0167C159.909 41.2579 159.817 41.3159 159.652 41.1641C159.487 41.0122 159.413 40.4383 159.54 39.9537C159.667 39.4691 160.433 39.0805 161.141 38.9063C161.849 38.7322 163.375 38.6428 165.018 37.7719C169.893 35.1859 172.035 33.2452 176.345 29.92C180.934 26.3827 185.021 24.4354 188.236 22.8744C190.22 21.9119 196.106 21.1928 196.106 21.1928C195.586 20.8522 195 20.624 194.387 20.5229C193.876 20.4656 193.362 20.4447 192.848 20.4603C193.645 20.0271 195.698 18.4505 195.997 16.4138C196.396 13.696 192.797 11.4562 192.743 8.98181C192.627 3.23139 186.852 2.42075 187.118 2.58377C188.203 3.25372 189.313 4.54449 189.521 5.29484C189.893 6.65038 188.75 8.1332 187.064 8.6915C186.267 8.95948 181.832 9.93091 181.24 10.5294C180.648 11.1279 181.865 14.261 181.081 15.5272C180.298 16.7935 175.896 18.982 175.373 19.5939C175.226 19.7797 175.027 19.9179 174.801 19.991C174.576 20.0641 174.333 20.0689 174.105 20.0048C173.922 19.9824 174.069 20.2281 174.61 20.3397C175.15 20.4514 176.084 20.1343 176.619 19.8373C177.155 19.5403 177.917 20.1812 177.881 20.5898C177.846 20.9985 177.334 21.1236 176.338 21.7466C175.543 22.2491 173.299 20.8534 173.109 20.3755C172.919 19.8976 173.582 20.0628 173.989 19.5559C174.395 19.049 173.692 18.9775 173.431 19.0534C173.169 19.1294 173.017 18.9976 172.761 18.9239C172.628 18.8865 172.488 18.8843 172.355 18.9176C172.221 18.9509 172.098 19.0185 171.999 19.1137C171.832 19.2968 171.999 19.4442 171.383 19.5224C170.766 19.6006 171.05 18.8524 171.177 18.0485C171.305 17.2446 171.814 15.1208 171.722 14.8439C171.631 14.567 171.604 14.6742 171.383 14.4129C171.162 14.1516 171.142 13.6826 171.119 12.9211C171.097 12.1596 171.157 10.7393 171.157 10.7393C170.812 11.3224 170.585 11.9672 170.487 12.6375C170.284 13.8524 171.121 14.5268 171.144 14.7099C171.166 14.893 171.121 15.3419 170.753 17.488C170.384 19.6341 170.842 20.0427 171.311 20.4179C171.78 20.7931 173.868 21.8717 173.868 21.8717L173.828 22.8409C173.123 23.0845 172.448 23.4098 171.818 23.8101C170.836 24.4421 170.478 25.5765 170.398 25.9517C170.317 26.3269 170.53 26.2688 170.53 26.2688C170.843 25.9686 171.175 25.6881 171.523 25.4291C172.28 24.8373 173.958 24.5135 174.165 24.4979C174.373 24.4823 174.389 24.5537 174.125 24.7413C173.862 24.9289 173.176 25.4291 171.707 26.5279C170.237 27.6266 170.027 29.0067 170.027 29.3283C170.027 29.6498 170.235 29.3841 170.235 29.3841C170.407 29.0302 170.648 28.7138 170.943 28.4529C171.441 27.9839 172.582 27.7047 173.846 27.4993C175.11 27.2938 175.318 26.979 175.708 26.3983C176.2 25.7418 176.764 25.1426 177.39 24.6118C177.613 24.489 177.669 24.5582 177.537 24.6498C177.406 24.7413 177.336 24.8195 176.66 25.543C176.255 25.9864 175.984 26.5354 175.878 27.1264C176.219 26.708 176.621 26.3429 177.071 26.0433C177.895 25.4604 179.884 24.8128 180.42 24.6833C180.956 24.5537 180.903 24.6252 180.811 24.7011C180.578 24.8501 180.334 24.9807 180.081 25.0919C178.243 26.1434 176.473 27.31 174.782 28.5846C172.048 30.6101 169.813 32.9549 167.62 34.5874C165.427 36.2198 163.779 36.9345 162.93 37.0863C162.082 37.2382 161.068 36.7335 159.804 36.6732C159.378 36.6621 158.955 36.7455 158.566 36.9174C158.176 37.0892 157.829 37.3452 157.55 37.6669C157.414 37.8501 157.414 38.0175 157.528 37.9997C157.642 37.9818 157.845 37.7563 158.033 37.7563C158.22 37.7563 158.202 37.8679 158.202 37.8679C158.202 37.8679 158.111 37.9059 157.756 38.0912C157.201 38.4435 156.792 38.9844 156.604 39.6143C156.342 40.4093 156.952 41.5995 156.952 41.5995C157.275 41.6167 157.593 41.6923 157.89 41.8229C158.284 41.9759 158.67 42.1511 159.044 42.3477C159.301 42.4951 159.565 42.5308 160.103 42.3879C160.641 42.2449 161.747 42.2315 162.506 42.274C163.265 42.3164 166.251 43.0332 168.154 41.7916C174.123 36.5503 180.373 36.9992 182.618 36.2087C187.218 34.536 186.461 28.3233 194.554 29.2613C194.204 28.368 187.87 26.3313 183.886 31.4096L183.857 31.4207ZM182.435 1.45825C185.099 2.32249 185.691 4.62042 184.768 5.67448C184.252 6.25734 183.67 6.60795 182.327 7.44092C181.532 7.92178 180.767 8.45053 180.036 9.02424C179.612 9.35475 179.366 9.81032 180.302 9.56467C180.396 9.53787 186.039 8.32302 186.778 7.94115C188.006 7.30693 188.341 6.85806 188.547 6.03179C188.752 5.20551 187.473 3.83211 186.874 3.15323C185.671 1.78652 182.801 0.339427 182.674 0.326028C181.231 -0.158571 179.462 0.238934 178.024 0.310396C177.868 0.310396 177.924 0.551578 178.006 0.616341C179.29 1.50961 180.863 1.08531 182.437 1.45825H182.435ZM166.278 18.5487C166.577 18.7854 167.171 19.8574 167.093 19.6921C167.015 19.5269 167.334 18.5264 166.662 17.3004C165.99 16.0744 165.786 15.6255 165.494 14.3973C165.201 13.169 164.674 12.1462 165.552 11.3825C166.466 10.5896 167.113 9.53347 167.403 8.35876C167.685 7.1908 168.622 6.27297 169.672 4.99336C170.722 3.71375 170.929 3.53733 170.929 3.53733C170.681 3.87454 170.192 5.23008 169.96 5.94469C169.728 6.65931 168.582 8.22476 168.066 9.05327C167.551 9.88178 166.38 11.4919 166.28 12.9948C166.179 14.4977 167.419 16.2798 167.602 16.9297C167.785 17.5795 167.356 19.4465 167.803 20.7685C168.25 22.0905 169.498 23.3322 169.721 23.493C169.945 23.6538 169.895 23.493 169.819 23.3992C169.596 23.1466 169.419 22.8562 169.297 22.5416C168.998 21.9074 169.132 21.2017 169.342 20.237C169.566 19.3558 169.642 18.4432 169.565 17.5371C169.476 16.5768 168.705 14.9444 168.468 13.9506C168.232 12.9569 168.839 11.9787 169.833 10.2838C170.827 8.58877 170.978 7.15731 171.11 6.09655C171.242 5.03579 171.818 3.54403 173.404 2.88525C174.317 2.50561 176.867 3.02594 178.201 3.86114C179.141 4.48643 179.601 5.07376 179.73 5.73701C179.887 6.52085 179.413 7.05905 179.116 7.83173C178.819 8.6044 178.614 9.48874 178.951 9.45524C179.243 9.42398 182.678 6.54095 183.449 5.70574C183.828 5.29037 184.342 4.22292 183.612 3.26935C182.986 2.43861 178.527 2.07014 177.665 0.870922C176.896 -0.187602 174.92 -0.131773 174.339 0.2568C173.812 0.616341 172.624 1.6101 171.481 2.00984C170.338 2.40958 169.138 2.59493 167.584 3.38324C166.03 4.17155 166.088 5.09832 165.925 5.77274C165.762 6.44716 165.63 8.2538 164.362 10.1855C163.093 12.1172 163.826 13.4504 164.451 15.4089C165.076 17.3674 165.976 18.312 166.278 18.5353V18.5487ZM174.732 17.5349C174.701 17.7582 174.922 17.5572 175.103 17.3116C175.284 17.0659 175.985 15.9002 177.113 13.9462C178.241 11.9921 178.931 10.3105 178.864 10.2681C178.797 10.2257 178.627 10.3865 178.448 10.5227C178.128 10.787 177.838 11.0866 177.584 11.416C177.274 11.8068 177.017 11.7733 176.626 11.8492C176.235 11.9251 175.51 12.7112 175.103 13.0395C174.676 13.3958 174.171 13.6474 173.629 13.7742C173.08 13.8635 172.986 13.6201 172.752 13.6625C172.517 13.705 172.528 14.0891 172.606 14.3593C172.685 14.6295 172.62 14.7456 172.575 15.2168C172.531 15.688 172.866 16.1548 173.147 16.425C173.428 16.6952 173.346 17.1083 173.522 17.2513C173.699 17.3942 173.772 16.4339 173.772 15.8399C173.772 15.2459 173.638 14.6697 173.661 14.5804C173.683 14.4911 174.152 14.3571 174.373 14.2186C174.594 14.0801 175.15 13.6849 175.411 13.5487C175.673 13.4124 175.686 13.5152 175.619 13.6692C175.498 13.9205 175.322 14.1412 175.103 14.3146C174.749 14.5541 174.348 14.7148 173.926 14.7858C173.768 14.797 173.781 14.9355 173.94 15.0583C174.098 15.1811 174.494 15.1789 174.846 15.0918C175.199 15.0047 175.157 15.4602 175.112 15.9515C175.067 16.4428 174.766 17.3294 174.732 17.5483" fill="#323646"/>
<path d="M0.0134277 5.37524H4.81029L7.68885 9.56021L10.5674 5.37524H15.3665L9.68977 13.3767V20.7685H5.68792V13.3767L0.0134277 5.37524Z" fill="#323646"/>
<path d="M19.6743 12.8074C19.6743 15.4604 21.6328 17.3988 24.0223 17.3988C26.4118 17.3988 28.3613 15.4604 28.3613 12.8074C28.3613 10.6837 26.4006 8.74304 24.0133 8.74304C21.6261 8.74304 19.6743 10.6837 19.6743 12.8074ZM32.5351 12.7851C32.5351 17.7673 28.962 21.2711 24.0223 21.2711C19.0825 21.2711 15.5094 17.7606 15.5094 12.7851C15.5094 8.13115 19.5916 4.86401 24.0223 4.86401C28.4529 4.86401 32.5351 8.13115 32.5351 12.7851Z" fill="#323646"/>
<path d="M47.7453 5.37524V14.031C47.7453 16.0119 47.6627 17.9726 46.1329 19.4621C44.8466 20.7283 42.8256 21.1772 41.0279 21.1772C39.2302 21.1772 37.2114 20.7305 35.9251 19.4621C34.3931 17.9726 34.3127 16.0119 34.3127 14.031V5.37524H38.3124V13.4794C38.3124 15.4893 38.4553 17.6644 41.0279 17.6644C43.6005 17.6644 43.7434 15.4804 43.7434 13.4794V5.37524H47.7453Z" fill="#323646"/>
<path d="M50.2777 5.37524H54.2796L61.6066 14.7858H61.649V5.37524H65.6486V20.7685H61.649L54.3198 11.3356H54.2796V20.7685H50.2777V5.37524Z" fill="#323646"/>
<path d="M83.6145 12.1732C83.5743 14.4197 83.4113 16.338 82.0513 18.2563C80.5395 20.36 78.2728 21.28 75.7002 21.28C70.8631 21.28 67.4955 17.9928 67.4955 13.1535C67.4955 8.15121 70.8832 4.86621 75.8431 4.86621C79.0075 4.86621 81.4595 6.29321 82.786 9.17177L78.9896 10.7663C78.4403 9.29459 77.2768 8.30977 75.6622 8.30977C73.0248 8.31423 71.6537 10.8266 71.6537 13.1759C71.6537 15.5653 73.0807 17.995 75.7158 17.995C77.451 17.995 78.7775 17.1018 78.9405 15.3152H75.6734V12.1732H83.6145Z" fill="#323646"/>
<path d="M94.4164 17.3786H99.2132V20.7685H90.4146V5.37524H94.4164V17.3786Z" fill="#323646"/>
<path d="M104.524 5.37524H100.522V20.7685H104.524V5.37524Z" fill="#323646"/>
<path d="M110.524 12.8074C110.524 15.4604 112.483 17.3988 114.872 17.3988C117.262 17.3988 119.22 15.4604 119.22 12.8074C119.22 10.6837 117.262 8.74304 114.872 8.74304C112.483 8.74304 110.524 10.6837 110.524 12.8074ZM123.385 12.7851C123.385 17.7673 119.812 21.2711 114.872 21.2711C109.932 21.2711 106.359 17.7606 106.359 12.7851C106.359 8.13115 110.444 4.86401 114.872 4.86401C119.301 4.86401 123.385 8.13115 123.385 12.7851Z" fill="#323646"/>
<path d="M125.245 5.37524H129.245L136.574 14.7858H136.614V5.37524H140.616V20.7685H136.614L129.285 11.3356H129.245V20.7685H125.245V5.37524Z" fill="#323646"/>
<path d="M151.682 9.33464C150.942 8.69713 150.005 8.33637 149.029 8.31408C148.294 8.31408 147.314 8.74285 147.314 9.60039C147.314 10.4937 148.394 10.8465 149.1 11.0721L150.11 11.3892C152.253 12.0212 153.906 13.102 153.906 15.5942C153.906 17.1262 153.537 18.6961 152.314 19.739C151.09 20.7819 149.495 21.1883 147.946 21.1883C146.005 21.1673 144.118 20.5533 142.537 19.4286L144.263 16.195C145.261 17.0748 146.447 17.7872 147.816 17.7872C148.754 17.7872 149.754 17.3182 149.754 16.224C149.754 15.1074 148.191 14.7144 147.325 14.4687C144.804 13.7653 143.147 13.1109 143.147 10.1319C143.147 7.00544 145.38 4.96655 148.455 4.96655C150.139 4.99603 151.791 5.43033 153.272 6.23276L151.682 9.33464Z" fill="#323646"/>
<path d="M13.399 28.9463C12.7545 28.2705 11.9812 27.7306 11.1248 27.3582C10.2684 26.9858 9.34617 26.7885 8.41237 26.7779C4.76783 26.7779 1.8178 29.9445 1.8178 33.5444C1.8178 37.1443 4.79016 40.3109 8.4548 40.3109C10.2972 40.3109 12.0971 39.4422 13.399 38.1425V40.3958C11.9798 41.4268 10.2737 41.9882 8.51956 42.0014C3.90582 42.0014 0 38.2497 0 33.6092C0.00823731 31.351 0.908947 29.1877 2.50573 27.5909C4.10251 25.9941 6.26585 25.0934 8.52402 25.0852C10.2826 25.0621 11.9984 25.6272 13.399 26.6908V28.9463Z" fill="#323646"/>
<path d="M17.4813 33.5444C17.4945 34.8665 17.8986 36.1551 18.6428 37.248C19.3869 38.3409 20.4378 39.1892 21.6631 39.686C22.8884 40.1828 24.2333 40.3059 25.5284 40.0399C26.8235 39.7739 28.011 39.1306 28.9413 38.1911C29.8715 37.2515 30.503 36.0577 30.7561 34.76C31.0092 33.4623 30.8727 32.1187 30.3637 30.8984C29.8547 29.6781 28.996 28.6357 27.8958 27.9025C26.7956 27.1692 25.503 26.778 24.1808 26.7779C22.3975 26.7944 20.6929 27.5147 19.4381 28.782C18.1833 30.0493 17.48 31.761 17.4813 33.5444ZM32.7048 33.5645C32.7123 35.2521 32.2188 36.9039 31.2866 38.3107C30.3545 39.7175 29.0257 40.816 27.4687 41.4669C25.9117 42.1178 24.1965 42.2919 22.5404 41.9671C20.8844 41.6424 19.362 40.8333 18.1662 39.6425C16.9704 38.4517 16.1549 36.9327 15.8232 35.2781C15.4914 33.6234 15.6583 31.9075 16.3027 30.3477C16.9471 28.788 18.0399 27.4546 19.4428 26.5166C20.8457 25.5785 22.4954 25.078 24.183 25.0784C25.3004 25.0737 26.4078 25.2898 27.4415 25.7141C28.4752 26.1385 29.4149 26.7628 30.2067 27.5513C30.9985 28.3398 31.6268 29.2768 32.0555 30.3088C32.4842 31.3407 32.7048 32.4471 32.7048 33.5645Z" fill="#323646"/>
<path d="M37.303 24.4353L43.2454 38.1626L49.2102 24.4353L52.5265 41.7201H50.664L48.5581 30.6592H48.5157L43.2454 42.3923L37.9975 30.6592H37.955L35.8492 41.7201H33.9867L37.303 24.4353Z" fill="#323646"/>
<path d="M56.4324 32.8724H57.6472C59.6571 32.8724 61.3766 32.2649 61.3766 29.9223C61.3766 27.2559 59.2283 27.0594 57.1046 27.0594H56.4346L56.4324 32.8724ZM56.4324 41.7202H54.6101V25.3689H57.2899C58.699 25.3689 60.1528 25.4113 61.3454 26.2354C61.9318 26.6623 62.4066 27.2244 62.7293 27.8741C63.052 28.5238 63.2131 29.2417 63.1989 29.967C63.2079 30.6307 63.0728 31.2885 62.8029 31.895C62.533 32.5015 62.1348 33.0422 61.6357 33.4798C60.5302 34.3887 59.1211 34.5629 57.7544 34.5629H56.4324V41.7202Z" fill="#323646"/>
<path d="M65.5192 25.3689H73.9985V27.0594H67.3414V31.9188H73.802V33.6093H67.3414V40.0275H73.9985V41.7202H65.5192V25.3689Z" fill="#323646"/>
<path d="M81.4372 41.7202H79.6149V27.0594H75.6666V25.3689H85.4278V27.0594H81.4372V41.7202Z" fill="#323646"/>
<path d="M89.1572 25.3689H87.335V41.7202H89.1572V25.3689Z" fill="#323646"/>
<path d="M96.8148 41.7202H94.9925V27.0594H91.0465V25.3689H100.803V27.0594H96.8148V41.7202Z" fill="#323646"/>
<path d="M104.535 25.3689H102.713V41.7202H104.535V25.3689Z" fill="#323646"/>
<path d="M108.849 33.5444C108.863 34.8665 109.267 36.1552 110.011 37.248C110.755 38.3409 111.806 39.1892 113.031 39.686C114.256 40.1828 115.601 40.306 116.896 40.0399C118.192 39.7739 119.379 39.1306 120.309 38.1911C121.24 37.2515 121.871 36.0577 122.124 34.76C122.377 33.4623 122.241 32.1187 121.732 30.8984C121.223 29.6781 120.364 28.6357 119.264 27.9025C118.164 27.1693 116.871 26.778 115.549 26.7779C113.765 26.7944 112.061 27.5147 110.806 28.782C109.551 30.0493 108.848 31.761 108.849 33.5444ZM124.075 33.5645C124.083 35.252 123.589 36.9038 122.657 38.3105C121.725 39.7173 120.396 40.8157 118.839 41.4667C117.283 42.1177 115.567 42.2919 113.911 41.9673C112.255 41.6427 110.733 40.8339 109.537 39.6433C108.341 38.4527 107.526 36.934 107.194 35.2794C106.862 33.6249 107.028 31.9091 107.672 30.3493C108.316 28.7895 109.409 27.456 110.811 26.5177C112.214 25.5794 113.864 25.0785 115.551 25.0785C116.669 25.0735 117.776 25.2893 118.81 25.7135C119.844 26.1377 120.784 26.762 121.576 27.5505C122.368 28.339 122.997 29.2762 123.426 30.3082C123.854 31.3403 124.075 32.4469 124.075 33.5645Z" fill="#323646"/>
<path d="M126.657 24.6743L139.408 38.0332V25.3688H141.23V42.4593L128.477 29.1206V41.7201H126.657V24.6743Z" fill="#323646"/>
<path d="M152.052 28.5579C151.4 27.4279 150.619 26.7713 149.232 26.7713C147.778 26.7713 146.521 27.812 146.521 29.3082C146.521 30.7196 147.975 31.3694 149.08 31.8674L150.165 32.3453C152.289 33.2743 154.089 34.3462 154.089 36.9479C154.089 39.8108 151.789 42.0016 148.953 42.0016C146.329 42.0016 144.377 40.311 143.854 37.7719L145.641 37.2739C145.88 38.9443 147.159 40.311 148.917 40.311C150.674 40.311 152.278 38.9711 152.278 37.1221C152.278 35.2149 150.782 34.5629 149.263 33.8683L148.265 33.4351C146.349 32.5686 144.71 31.5927 144.71 29.2546C144.71 26.7177 146.856 25.0897 149.285 25.0897C150.156 25.0786 151.013 25.3103 151.76 25.7588C152.507 26.2073 153.114 26.8548 153.513 27.6289L152.052 28.5579Z" fill="#323646"/>
<path d="M153.966 44.6567H0.799438V45.1771H153.966V44.6567Z" fill="#323646"/>
<path d="M1.14118 49.1411L3.02821 53.871L4.94204 49.1411H6.05863L3.00588 56.4793L0.0134277 49.1411H1.14118Z" fill="#323646"/>
<path d="M8.17338 49.1411V55.9657H7.14612V49.1411H8.17338Z" fill="#323646"/>
<path d="M13.8055 50.1103H11.0699V51.7495H13.7274V52.7164H11.0699V54.9987H13.8055V55.9657H10.0493V49.1411H13.8055V50.1103Z" fill="#323646"/>
<path d="M17.2669 50.1103V55.9657H16.2374V50.1103H14.6742V49.1411H18.8324V50.1103H17.2669Z" fill="#323646"/>
<path d="M19.978 55.9657V48.6833L24.9535 53.8911V49.1412H25.9853V56.3811L21.0075 51.189V55.9657H19.978Z" fill="#323646"/>
<path d="M31.854 54.3085H28.933L28.1737 55.9655H27.0571L30.4337 48.7122L33.6919 55.9655H32.5641L31.854 54.3085ZM31.4341 53.3393L30.4225 51.0213L29.3618 53.3393H31.4341Z" fill="#323646"/>
<path d="M34.5383 55.9656L35.9743 48.6296L38.3169 53.9334L40.7443 48.6296L42.0351 55.9656H40.9788L40.32 51.8476L38.3102 56.2805L36.3472 51.8432L35.6125 55.9656H34.5383Z" fill="#323646"/>
<path d="M258.284 11.7488C258.251 11.5549 258.167 11.3733 258.041 11.2224C257.914 11.0715 257.75 10.9567 257.566 10.8894C257.381 10.8222 257.181 10.8051 256.988 10.8397C256.794 10.8743 256.613 10.9595 256.463 11.0866C256.313 11.2137 256.199 11.3783 256.132 11.5636C256.066 11.7488 256.05 11.9483 256.086 12.1418C256.122 12.3353 256.208 12.5158 256.336 12.6653C256.464 12.8147 256.629 12.9276 256.815 12.9927C256.935 13.0375 257.062 13.0609 257.19 13.0619C257.45 13.0611 257.702 12.9697 257.901 12.8034C258.101 12.6371 258.237 12.4062 258.284 12.1508C258.3 12.0849 258.307 12.0174 258.307 11.9498C258.308 11.8821 258.3 11.8146 258.284 11.7488Z" fill="#323646"/>
<path d="M252.105 26.3157C252.154 26.3184 252.203 26.3115 252.25 26.2952C252.296 26.2789 252.339 26.2536 252.375 26.2209C252.412 26.1881 252.441 26.1484 252.462 26.1042C252.484 26.0599 252.496 26.0119 252.498 25.9629V12.2289L257.213 4.67627L261.922 12.2289V25.9629C261.929 26.0624 261.975 26.1553 262.05 26.2213C262.125 26.2873 262.222 26.3212 262.322 26.3157C262.371 26.3184 262.42 26.3115 262.466 26.2952C262.513 26.2789 262.555 26.2536 262.592 26.2209C262.628 26.1881 262.658 26.1484 262.679 26.1042C262.7 26.0599 262.712 26.0119 262.715 25.9629V12.1373C262.715 12.0762 262.697 12.0165 262.664 11.9653L257.556 3.77853C257.518 3.72279 257.466 3.67725 257.406 3.64579C257.346 3.61433 257.279 3.5979 257.211 3.5979C257.144 3.5979 257.077 3.61433 257.017 3.64579C256.957 3.67725 256.905 3.72279 256.866 3.77853L251.757 11.9653C251.725 12.0172 251.708 12.0766 251.708 12.1373V25.9629C251.714 26.0622 251.759 26.1551 251.834 26.2211C251.908 26.2872 252.006 26.3212 252.105 26.3157Z" fill="#323646"/>
<path d="M257.212 26.3157C257.261 26.3184 257.31 26.3115 257.357 26.2952C257.403 26.2789 257.446 26.2537 257.482 26.2209C257.519 26.1881 257.548 26.1484 257.57 26.1042C257.591 26.0599 257.603 26.0119 257.605 25.9629V12.9814C257.473 13.0345 257.332 13.0618 257.19 13.0618C257.062 13.0609 256.935 13.0374 256.815 12.9926V25.9629C256.821 26.0622 256.867 26.1551 256.941 26.2211C257.016 26.2872 257.113 26.3212 257.212 26.3157Z" fill="#323646"/>
<path d="M257.212 40.2397C257.113 40.2348 257.015 40.2693 256.941 40.3358C256.867 40.4022 256.821 40.4953 256.815 40.5948V53.0023C256.822 53.1015 256.867 53.1939 256.942 53.2599C257.016 53.3259 257.113 53.3601 257.212 53.3552C257.311 53.36 257.408 53.3257 257.482 53.2596C257.555 53.1935 257.6 53.1011 257.605 53.0023V40.5948C257.6 40.4956 257.556 40.4026 257.482 40.336C257.409 40.2695 257.312 40.2349 257.212 40.2397Z" fill="#323646"/>
<path d="M253.8 40.2396C253.701 40.2347 253.604 40.2693 253.529 40.3358C253.455 40.4023 253.411 40.4953 253.405 40.5947V49.7663C253.417 49.8626 253.465 49.951 253.538 50.015C253.61 50.0791 253.704 50.1144 253.801 50.1144C253.898 50.1144 253.992 50.0791 254.065 50.015C254.138 49.951 254.185 49.8626 254.198 49.7663V40.5947C254.192 40.4949 254.147 40.4015 254.072 40.335C253.998 40.2684 253.9 40.2341 253.8 40.2396Z" fill="#323646"/>
<path d="M260.739 40.2397C260.64 40.2348 260.543 40.2695 260.469 40.336C260.395 40.4026 260.351 40.4956 260.346 40.5948V49.7664C260.353 49.8658 260.398 49.9587 260.471 50.0265C260.544 50.0943 260.64 50.132 260.74 50.132C260.84 50.132 260.936 50.0943 261.009 50.0265C261.082 49.9587 261.127 49.8658 261.134 49.7664V40.5948C261.128 40.4954 261.083 40.4024 261.009 40.3359C260.935 40.2694 260.838 40.2348 260.739 40.2397Z" fill="#323646"/>
<path d="M266.364 39.344H265.544V26.6685C265.54 26.5975 265.514 26.5295 265.471 26.473C265.428 26.4166 265.368 26.3742 265.301 26.3514C265.231 26.3229 265.155 26.3134 265.081 26.324C265.006 26.3346 264.936 26.3649 264.877 26.4117L257.208 32.707L249.542 26.4117C249.482 26.3649 249.41 26.3347 249.335 26.3241C249.26 26.3136 249.183 26.323 249.113 26.3514C249.048 26.3767 248.992 26.4208 248.952 26.4781C248.912 26.5354 248.89 26.6032 248.889 26.673V39.3485H248.041C247.898 39.3485 247.786 39.507 247.786 39.7013C247.786 39.8956 247.898 40.0519 248.041 40.0519H249.341C249.375 40.0521 249.41 40.042 249.439 40.0229C249.507 40.0005 249.567 39.9576 249.61 39.9001C249.653 39.8426 249.678 39.7732 249.68 39.7013V27.468L256.949 33.4373C257.025 33.4982 257.12 33.5313 257.217 33.5313C257.314 33.5313 257.409 33.4982 257.485 33.4373L264.752 27.468V39.6924C264.753 39.7478 264.768 39.8021 264.796 39.8501C264.823 39.8982 264.863 39.9384 264.91 39.9671C264.93 39.9893 264.953 40.0074 264.98 40.0204C265.006 40.0335 265.035 40.0411 265.064 40.043H266.364C266.503 40.043 266.619 39.8889 266.619 39.6924C266.619 39.4959 266.503 39.344 266.364 39.344Z" fill="#323646"/>
<path d="M329.348 31.8965C328.073 31.8965 327.149 32.2962 326.566 33.1024L327.173 33.6272C327.62 32.9572 328.348 32.6267 329.337 32.6267C330.811 32.6267 331.555 33.2721 331.555 34.5562V35.4383H329.016C328.207 35.4383 327.566 35.6125 327.089 35.9631C326.548 36.3539 326.276 36.9368 326.276 37.7117C326.276 39.2124 327.234 39.9672 329.159 39.9672C330.168 39.9672 330.967 39.6731 331.555 39.0851V39.8689H332.403V34.4736C332.403 32.7518 331.385 31.8965 329.348 31.8965ZM331.555 37.1243C331.555 37.839 331.407 38.3437 331.108 38.625C330.697 39.027 330.047 39.2302 329.161 39.2302C327.799 39.2302 327.118 38.7188 327.12 37.696C327.12 36.6397 327.79 36.1083 329.114 36.1083H331.548L331.555 37.1243Z" fill="#323646"/>
<path d="M340.139 32.6267C340.903 32.6267 341.575 32.9617 342.162 33.6272L342.73 33.1024C342.411 32.7242 342.014 32.4203 341.566 32.212C341.118 32.0037 340.629 31.896 340.135 31.8965C338.991 31.8965 338.112 32.2895 337.5 33.0845C336.948 33.8058 336.667 34.7549 336.667 35.9296C336.667 37.1042 336.948 38.0533 337.5 38.7747C338.112 39.5697 338.99 39.9672 340.135 39.9672C340.629 39.9668 341.118 39.8583 341.566 39.6492C342.014 39.4401 342.412 39.1355 342.73 38.7568L342.162 38.2342C341.575 38.9042 340.903 39.2302 340.139 39.2302C338.391 39.2302 337.517 38.13 337.517 35.9296C337.517 33.7292 338.391 32.6282 340.139 32.6267Z" fill="#323646"/>
<path d="M349.237 31.8965C347.962 31.8965 347.035 32.2962 346.459 33.1024L347.062 33.6272C347.509 32.9617 348.231 32.6282 349.228 32.6267C350.705 32.6267 351.443 33.2699 351.441 34.5562V35.4383H348.904C348.096 35.4383 347.457 35.6125 346.977 35.9631C346.437 36.3546 346.167 36.9375 346.167 37.7117C346.167 39.2124 347.127 39.9672 349.05 39.9672C350.055 39.9672 350.854 39.6724 351.441 39.0851V39.8689H352.294V34.4736C352.294 32.7518 351.278 31.8965 349.237 31.8965ZM351.441 37.1243C351.441 37.839 351.298 38.3437 351.008 38.625C350.597 39.027 349.943 39.2302 349.061 39.2302C347.697 39.2302 347.015 38.7188 347.015 37.696C347.015 36.6397 347.685 36.1083 349.009 36.1083H351.441V37.1243Z" fill="#323646"/>
<path d="M361.837 33.0063C361.57 32.6425 361.218 32.3503 360.811 32.1555C360.404 31.9607 359.956 31.8694 359.505 31.8897C357.549 31.8897 356.572 33.234 356.573 35.9228C356.575 38.6115 357.552 39.9618 359.505 39.9738C359.956 39.9935 360.404 39.9019 360.811 39.7071C361.217 39.5124 361.57 39.2205 361.837 38.8572V39.871H362.683V28.2295H361.837V33.0063ZM359.628 39.2301C358.159 39.2301 357.424 38.1299 357.424 35.9295C357.424 34.9499 357.548 34.2055 357.797 33.6963C358.142 32.9876 358.753 32.6333 359.628 32.6333C360.503 32.6333 361.115 32.9876 361.464 33.6963C361.712 34.2099 361.837 34.9543 361.837 35.9295C361.837 38.1299 361.1 39.2301 359.628 39.2301Z" fill="#323646"/>
<path d="M370.169 31.8965C369.081 31.8965 368.262 32.3119 367.712 33.1493C367.243 33.8594 367.011 34.784 367.011 35.9296C367.011 38.6213 368.128 39.9672 370.361 39.9672C370.892 39.9696 371.418 39.8635 371.907 39.6554C372.396 39.4473 372.837 39.1415 373.204 38.7568L372.583 38.2677C372.308 38.569 371.974 38.81 371.602 38.9757C371.229 39.1413 370.826 39.228 370.419 39.2302C368.713 39.2302 367.859 38.1881 367.857 36.1038H373.317V35.7308C373.317 34.6306 373.073 33.7374 372.583 33.051C372.047 32.2761 371.236 31.8965 370.169 31.8965ZM367.864 35.4383C367.869 34.9227 367.963 34.4119 368.143 33.9287C368.3 33.5331 368.582 33.2003 368.947 32.9818C369.314 32.7477 369.74 32.6244 370.175 32.6267C370.615 32.6222 371.047 32.749 371.415 32.9907C372.085 33.4374 372.449 34.2413 372.491 35.4472L367.864 35.4383Z" fill="#323646"/>
<path d="M386.047 31.8964C385.512 31.8719 384.981 31.9922 384.509 32.2446C384.038 32.4969 383.643 32.872 383.367 33.3301C382.877 32.3743 382.033 31.8964 380.834 31.8964C380.393 31.8791 379.954 31.9626 379.55 32.1406C379.146 32.3187 378.788 32.5865 378.503 32.9237V31.988H377.654V39.8689H378.503V34.9804C378.503 34.2502 378.69 33.6763 379.07 33.2587C379.45 32.8411 379.995 32.6267 380.709 32.6267C382.145 32.6267 382.869 33.415 382.869 34.9804V39.8689H383.715V34.8375C383.7 34.5415 383.746 34.2455 383.851 33.9681C383.955 33.6907 384.116 33.4378 384.323 33.2252C384.538 33.0217 384.792 32.8638 385.07 32.7609C385.348 32.6581 385.643 32.6124 385.939 32.6267C387.389 32.6267 388.11 33.415 388.11 34.9804V39.8689H388.927V34.8375C388.927 33.9294 388.672 33.2118 388.161 32.6847C387.652 32.1577 386.944 31.8964 386.047 31.8964Z" fill="#323646"/>
<path d="M397.929 31.9881L395.564 38.8908L393.204 31.9881H392.279L395.165 39.8868L394.528 41.622C394.433 41.9442 394.255 42.2359 394.012 42.4684C393.735 42.6402 393.409 42.7185 393.083 42.6917H392.771V43.4286H393.162C393.704 43.4566 394.236 43.276 394.649 42.9239C394.899 42.6664 395.084 42.3524 395.187 42.0083L398.849 31.9858L397.929 31.9881Z" fill="#323646"/>
<path d="M280.351 25.9919C278.22 25.9919 276.67 26.6619 275.712 28.0018L277.885 29.6588C278.316 28.9487 279.187 28.6003 280.487 28.6003C281.501 28.6003 282.224 28.732 282.662 28.9911C283.1 29.2501 283.309 29.7146 283.309 30.3623V31.8027H279.484C278.071 31.8027 276.96 32.2091 276.15 33.022C275.775 33.4138 275.481 33.8757 275.285 34.3813C275.089 34.8869 274.995 35.4262 275.008 35.9684C275.02 36.5105 275.14 37.0447 275.36 37.5405C275.58 38.0362 275.895 38.4837 276.288 38.8573C277.182 39.6701 278.383 40.081 279.895 40.081C281.608 40.081 282.749 39.6165 283.309 38.6942V39.9158H286.07V30.5208C286.07 27.5016 284.163 25.9919 280.351 25.9919ZM283.309 35.081C283.309 36.1693 283.029 36.866 282.468 37.1712C282.125 37.3722 281.375 37.4727 280.217 37.4727C278.479 37.4727 277.611 36.8936 277.613 35.7353C277.613 34.6291 278.408 34.0775 279.998 34.0805H283.309V35.081Z" fill="#323646"/>
<path d="M294.518 20.5967H291.751V23.3613H294.518V20.5967Z" fill="#323646"/>
<path d="M294.518 26.1572H291.751V39.9158H294.518V26.1572Z" fill="#323646"/>
<path d="M314.991 25.9921C313.178 25.9921 311.726 26.5876 310.634 27.7786C309.475 26.5876 308.177 25.9921 306.742 25.9921C305.218 25.9921 304.019 26.5355 303.147 27.6223V26.1574H300.382V39.9137H303.147V31.7113C303.147 30.789 303.401 30.0699 303.908 29.5406C304.166 29.2796 304.475 29.0751 304.816 28.9402C305.157 28.8052 305.522 28.7428 305.889 28.7568C306.251 28.7445 306.612 28.8078 306.949 28.9428C307.285 29.0777 307.59 29.2813 307.843 29.5406C308.35 30.0699 308.602 30.789 308.602 31.7113V39.9092H311.371V31.7113C311.371 30.789 311.624 30.0699 312.131 29.5406C312.389 29.2796 312.698 29.0751 313.04 28.9401C313.381 28.8052 313.747 28.7427 314.114 28.7568C314.476 28.7452 314.837 28.8088 315.173 28.9437C315.509 29.0787 315.814 29.2819 316.068 29.5406C316.572 30.0699 316.823 30.789 316.823 31.7113V39.9092H319.592V30.7711C319.592 29.3046 319.094 28.1188 318.098 27.2136C317.259 26.4203 316.146 25.9825 314.991 25.9921Z" fill="#323646"/>
<g opacity="0.53">
<path d="M324.006 16.8238C323.062 16.8238 322.27 16.5045 321.632 15.8659C320.993 15.2272 320.674 14.4356 320.674 13.4911C320.674 12.5466 320.993 11.7505 321.632 11.1029C322.27 10.4552 323.062 10.1314 324.006 10.1314C324.951 10.1314 325.742 10.4552 326.381 11.1029C327.02 11.7505 327.339 12.5466 327.339 13.4911C327.339 14.4356 327.02 15.2272 326.381 15.8659C325.742 16.5045 324.951 16.8238 324.006 16.8238ZM324.006 11.1299C323.341 11.1299 322.796 11.3547 322.374 11.8045C321.96 12.2543 321.753 12.812 321.753 13.4776C321.753 14.1433 321.96 14.701 322.374 15.1507C322.796 15.6005 323.341 15.8254 324.006 15.8254C324.672 15.8254 325.212 15.6005 325.625 15.1507C326.048 14.701 326.26 14.1433 326.26 13.4776C326.26 12.812 326.048 12.2543 325.625 11.8045C325.212 11.3547 324.672 11.1299 324.006 11.1299Z" fill="#323646"/>
<path d="M329.842 10.3068V10.9949H329.869C330.301 10.4192 330.769 10.1314 331.273 10.1314C331.569 10.1314 331.893 10.2303 332.244 10.4282L331.731 11.4132C331.452 11.2243 331.237 11.1299 331.084 11.1299C330.256 11.1299 329.842 11.9125 329.842 13.4776V16.6484H328.763V10.3068H329.842Z" fill="#323646"/>
<path d="M335.9 11.1299C335.288 11.1299 334.789 11.3547 334.402 11.8045C334.025 12.2453 333.836 12.7805 333.836 13.4102C333.836 14.0668 334.016 14.6245 334.375 15.0833C334.762 15.578 335.275 15.8254 335.914 15.8254C336.579 15.8254 337.105 15.587 337.492 15.1103C337.852 14.6695 338.032 14.1073 338.032 13.4236C338.032 12.767 337.839 12.2228 337.452 11.791C337.065 11.3503 336.548 11.1299 335.9 11.1299ZM339.057 10.3068V16.3381C339.057 16.9948 339.03 17.4715 338.976 17.7683C338.886 18.2631 338.698 18.6949 338.41 19.0637C337.825 19.8103 337.006 20.1836 335.954 20.1836C335.054 20.1836 334.312 19.9182 333.728 19.3875C333.152 18.8658 332.855 18.1596 332.837 17.2691H333.917C333.926 17.8538 334.114 18.3171 334.483 18.6589C334.861 19.0097 335.347 19.1851 335.941 19.1851C337.299 19.1851 337.978 18.2991 337.978 16.527V15.7714H337.951C337.411 16.473 336.678 16.8238 335.752 16.8238C334.843 16.8238 334.105 16.491 333.539 15.8254C332.999 15.2047 332.729 14.4311 332.729 13.5046C332.729 12.5691 333.004 11.782 333.552 11.1434C334.128 10.4687 334.875 10.1314 335.792 10.1314C336.692 10.1314 337.411 10.4912 337.951 11.2108H337.978V10.3068H339.057Z" fill="#323646"/>
<path d="M343.794 11.1299C343.183 11.1299 342.684 11.3547 342.297 11.8045C341.919 12.2453 341.73 12.7805 341.73 13.4102C341.73 14.0668 341.91 14.6245 342.27 15.0833C342.657 15.578 343.169 15.8254 343.808 15.8254C344.474 15.8254 345 15.587 345.387 15.1103C345.746 14.6695 345.926 14.1073 345.926 13.4236C345.926 12.767 345.733 12.2228 345.346 11.791C344.959 11.3503 344.442 11.1299 343.794 11.1299ZM346.952 10.3068V16.6484H345.872V15.7714H345.845C345.297 16.473 344.568 16.8238 343.659 16.8238C342.76 16.8238 342.022 16.4865 341.447 15.8119C340.898 15.1822 340.624 14.4086 340.624 13.4911C340.624 12.5466 340.893 11.7595 341.433 11.1299C342 10.4642 342.746 10.1314 343.673 10.1314C344.564 10.1314 345.288 10.4912 345.845 11.2108H345.872V10.3068H346.952Z" fill="#323646"/>
<path d="M350.03 10.3068V11.0759H350.057C350.516 10.4462 351.119 10.1314 351.865 10.1314C353.304 10.1314 354.024 11.0489 354.024 12.8839V16.6484H352.945V13.0728C352.945 12.4342 352.877 11.9799 352.742 11.7101C352.553 11.3233 352.175 11.1299 351.609 11.1299C350.943 11.1299 350.493 11.4042 350.259 11.9529C350.107 12.3127 350.03 12.8749 350.03 13.6395V16.6484H348.951V10.3068H350.03Z" fill="#323646"/>
<path d="M357.361 10.3068V16.6484H356.282V10.3068H357.361ZM356.821 7.14948C357.028 7.14948 357.208 7.22594 357.361 7.37886C357.514 7.53178 357.59 7.71168 357.59 7.91857C357.59 8.13446 357.514 8.31886 357.361 8.47178C357.217 8.6157 357.037 8.68766 356.821 8.68766C356.605 8.68766 356.421 8.6157 356.268 8.47178C356.124 8.31886 356.052 8.13446 356.052 7.91857C356.052 7.71168 356.129 7.53178 356.282 7.37886C356.435 7.22594 356.614 7.14948 356.821 7.14948Z" fill="#323646"/>
<path d="M360.906 15.65H365.278V16.6484H358.72L363.294 11.3053H359.57V10.3068H365.466L360.906 15.65Z" fill="#323646"/>
<path d="M372.126 13.707H367.147C367.156 14.3187 367.354 14.8269 367.741 15.2317C368.128 15.6275 368.622 15.8254 369.225 15.8254C370.026 15.8254 370.669 15.3891 371.154 14.5166L372.072 15.0428C371.433 16.2302 370.457 16.8238 369.144 16.8238C368.208 16.8238 367.457 16.5135 366.891 15.8928C366.324 15.2722 366.041 14.4941 366.041 13.5586C366.041 12.5781 366.306 11.773 366.837 11.1434C367.394 10.4687 368.155 10.1314 369.117 10.1314C370.097 10.1314 370.867 10.4912 371.424 11.2108C371.946 11.8765 372.18 12.7085 372.126 13.707ZM367.201 12.7895H370.993C370.921 12.3217 370.709 11.9304 370.358 11.6156C370.008 11.2918 369.598 11.1299 369.13 11.1299C368.654 11.1299 368.226 11.2918 367.849 11.6156C367.48 11.9304 367.264 12.3217 367.201 12.7895Z" fill="#323646"/>
<path d="M376.235 11.1299C375.624 11.1299 375.124 11.3547 374.738 11.8045C374.36 12.2453 374.171 12.7805 374.171 13.4102C374.171 14.0668 374.351 14.6245 374.711 15.0833C375.097 15.578 375.61 15.8254 376.249 15.8254C376.914 15.8254 377.441 15.587 377.827 15.1103C378.187 14.6695 378.367 14.1073 378.367 13.4236C378.367 12.767 378.174 12.2228 377.787 11.791C377.4 11.3503 376.883 11.1299 376.235 11.1299ZM378.313 16.6484V15.7714H378.286C377.746 16.473 377.018 16.8238 376.1 16.8238C375.201 16.8238 374.463 16.4865 373.887 15.8119C373.339 15.1822 373.064 14.4086 373.064 13.4911C373.064 12.5466 373.334 11.7595 373.874 11.1299C374.441 10.4642 375.187 10.1314 376.114 10.1314C377.013 10.1314 377.737 10.4912 378.286 11.2108H378.313V5.51685H379.393V16.6484H378.313Z" fill="#323646"/>
<path d="M388.578 11.1299C387.966 11.1299 387.467 11.3547 387.08 11.8045C386.702 12.2453 386.514 12.7805 386.514 13.4102C386.514 14.0668 386.693 14.6245 387.053 15.0833C387.44 15.578 387.953 15.8254 388.591 15.8254C389.257 15.8254 389.783 15.587 390.17 15.1103C390.53 14.6695 390.71 14.1073 390.71 13.4236C390.71 12.767 390.516 12.2228 390.13 11.791C389.743 11.3503 389.226 11.1299 388.578 11.1299ZM385.488 16.6484V5.51685H386.568V11.2108H386.595C387.143 10.4912 387.867 10.1314 388.767 10.1314C389.693 10.1314 390.44 10.4642 391.007 11.1299C391.546 11.7505 391.816 12.5331 391.816 13.4776C391.816 14.3951 391.542 15.1732 390.993 15.8119C390.427 16.4865 389.689 16.8238 388.78 16.8238C387.845 16.8238 387.116 16.473 386.595 15.7714H386.568V16.6484H385.488Z" fill="#323646"/>
<path d="M395.191 16.0548L392.277 10.3068H393.532L395.772 14.8539L397.823 10.3068H399.05L394.368 20.2105H393.141L395.191 16.0548Z" fill="#323646"/>
</g>
<path d="M128.555 55.8894H130.462V57.1714H125.783L128.159 54.5847C128.601 54.1021 128.822 53.6257 128.822 53.1556C128.822 52.9596 128.762 52.7861 128.641 52.6353C128.513 52.4769 128.352 52.3977 128.159 52.3977C127.96 52.3977 127.803 52.4681 127.687 52.6089C127.579 52.7396 127.525 52.9068 127.525 53.1104C127.525 53.1883 127.534 53.27 127.552 53.3555H125.881C125.906 52.6743 126.121 52.1313 126.526 51.7266C126.931 51.3193 127.472 51.1157 128.151 51.1157C128.782 51.1157 129.309 51.3005 129.731 51.67C130.176 52.0596 130.398 52.5649 130.398 53.1858C130.398 53.5754 130.315 53.9211 130.15 54.2227C130.014 54.4666 129.782 54.7418 129.456 55.0485L128.555 55.8894Z" fill="#323646"/>
<path d="M133.475 51.1157C134.28 51.1157 134.908 51.4513 135.361 52.1225C135.753 52.7057 135.949 53.4183 135.949 54.2604C135.949 55.1076 135.754 55.8202 135.364 56.3984C134.914 57.0671 134.285 57.4014 133.475 57.4014C132.668 57.4014 132.04 57.0671 131.59 56.3984C131.2 55.8202 131.005 55.1076 131.005 54.2604C131.005 53.4183 131.202 52.7057 131.594 52.1225C132.046 51.4513 132.673 51.1157 133.475 51.1157ZM133.475 52.4543C133.133 52.4543 132.876 52.6831 132.702 53.1406C132.574 53.4774 132.51 53.8482 132.51 54.2529C132.51 54.6576 132.574 55.0309 132.702 55.3728C132.876 55.8353 133.133 56.0666 133.475 56.0666C133.82 56.0666 134.079 55.8353 134.252 55.3728C134.378 55.0359 134.441 54.6627 134.441 54.2529C134.441 53.8432 134.378 53.4724 134.252 53.1406C134.079 52.6831 133.82 52.4543 133.475 52.4543Z" fill="#323646"/>
<path d="M139.158 55.8894H141.066V57.1714H136.386L138.762 54.5847C139.204 54.1021 139.425 53.6257 139.425 53.1556C139.425 52.9596 139.365 52.7861 139.244 52.6353C139.116 52.4769 138.955 52.3977 138.762 52.3977C138.563 52.3977 138.406 52.4681 138.29 52.6089C138.182 52.7396 138.128 52.9068 138.128 53.1104C138.128 53.1883 138.137 53.27 138.155 53.3555H136.484C136.509 52.6743 136.724 52.1313 137.129 51.7266C137.534 51.3193 138.075 51.1157 138.754 51.1157C139.385 51.1157 139.912 51.3005 140.334 51.67C140.779 52.0596 141.001 52.5649 141.001 53.1858C141.001 53.5754 140.919 53.9211 140.753 54.2227C140.617 54.4666 140.386 54.7418 140.059 55.0485L139.158 55.8894Z" fill="#323646"/>
<path d="M144.459 55.8894H146.367V57.1714H141.688L144.063 54.5847C144.506 54.1021 144.727 53.6257 144.727 53.1556C144.727 52.9596 144.667 52.7861 144.546 52.6353C144.418 52.4769 144.257 52.3977 144.063 52.3977C143.865 52.3977 143.708 52.4681 143.592 52.6089C143.484 52.7396 143.43 52.9068 143.43 53.1104C143.43 53.1883 143.439 53.27 143.456 53.3555H141.786C141.811 52.6743 142.026 52.1313 142.431 51.7266C142.835 51.3193 143.377 51.1157 144.056 51.1157C144.687 51.1157 145.213 51.3005 145.636 51.67C146.081 52.0596 146.303 52.5649 146.303 53.1858C146.303 53.5754 146.22 53.9211 146.054 54.2227C145.918 54.4666 145.687 54.7418 145.36 55.0485L144.459 55.8894Z" fill="#323646"/>
</g>
<defs>
<clipPath id="clip0_43_2322">
<rect width="399.068" height="58" fill="white"/>
</clipPath>
</defs>
</svg>
