<svg width="154" height="58" viewBox="0 0 154 58" fill="none" xmlns="http://www.w3.org/2000/svg">
<g clip-path="url(#clip0_43_2269)">
<path d="M12.2844 11.7488C12.2509 11.5549 12.1668 11.3733 12.0405 11.2224C11.9143 11.0715 11.7505 10.9567 11.5656 10.8894C11.3806 10.8222 11.1813 10.8051 10.9876 10.8397C10.7939 10.8743 10.6128 10.9595 10.4627 11.0866C10.3125 11.2137 10.1986 11.3783 10.1325 11.5636C10.0663 11.7488 10.0503 11.9483 10.0861 12.1418C10.1219 12.3353 10.2081 12.5158 10.3361 12.6653C10.4641 12.8147 10.6293 12.9276 10.815 12.9927C10.935 13.0375 11.062 13.0609 11.1901 13.0619C11.4501 13.0611 11.7016 12.9697 11.9013 12.8034C12.1011 12.6371 12.2366 12.4062 12.2844 12.1508C12.2998 12.0849 12.3073 12.0174 12.3067 11.9498C12.3075 11.8821 12.3 11.8146 12.2844 11.7488Z" fill="#323646"/>
<path d="M6.10527 26.3157C6.15427 26.3184 6.2033 26.3115 6.24959 26.2952C6.29588 26.2789 6.3385 26.2536 6.37502 26.2209C6.41153 26.1881 6.4412 26.1484 6.46236 26.1042C6.48351 26.0599 6.49574 26.0119 6.49831 25.9629V12.2289L11.2125 4.67627L15.9223 12.2289V25.9629C15.9292 26.0624 15.975 26.1553 16.0498 26.2213C16.1246 26.2873 16.2224 26.3212 16.322 26.3157C16.371 26.3184 16.42 26.3115 16.4663 26.2952C16.5126 26.2789 16.5552 26.2536 16.5918 26.2209C16.6283 26.1881 16.6579 26.1484 16.6791 26.1042C16.7003 26.0599 16.7125 26.0119 16.7151 25.9629V12.1373C16.7149 12.0762 16.697 12.0165 16.6637 11.9653L11.5564 3.77853C11.5178 3.72279 11.4662 3.67725 11.4061 3.64579C11.346 3.61433 11.2792 3.5979 11.2114 3.5979C11.1436 3.5979 11.0768 3.61433 11.0167 3.64579C10.9566 3.67725 10.905 3.72279 10.8664 3.77853L5.75689 11.9653C5.72523 12.0172 5.70825 12.0766 5.70776 12.1373V25.9629C5.71409 26.0622 5.75942 26.1551 5.83387 26.2211C5.90832 26.2872 6.00587 26.3212 6.10527 26.3157Z" fill="#323646"/>
<path d="M11.2125 26.3157C11.2614 26.3184 11.3105 26.3115 11.3568 26.2952C11.4031 26.2789 11.4457 26.2537 11.4822 26.2209C11.5187 26.1881 11.5484 26.1484 11.5695 26.1042C11.5907 26.0599 11.6029 26.0119 11.6055 25.9629V12.9814C11.4734 13.0345 11.3324 13.0618 11.1901 13.0618C11.062 13.0609 10.935 13.0374 10.8149 12.9926V25.9629C10.8213 26.0622 10.8666 26.1551 10.941 26.2211C11.0155 26.2872 11.1131 26.3212 11.2125 26.3157Z" fill="#323646"/>
<path d="M11.2125 40.2397C11.1128 40.2348 11.0153 40.2693 10.9409 40.3358C10.8665 40.4022 10.8213 40.4953 10.8149 40.5948V53.0023C10.8218 53.1015 10.8673 53.1939 10.9416 53.2599C11.016 53.3259 11.1132 53.3601 11.2125 53.3552C11.3113 53.36 11.408 53.3257 11.4816 53.2596C11.5552 53.1935 11.5997 53.1011 11.6055 53.0023V40.5948C11.6003 40.4956 11.556 40.4026 11.4823 40.336C11.4087 40.2695 11.3116 40.2349 11.2125 40.2397Z" fill="#323646"/>
<path d="M7.80019 40.2396C7.7008 40.2347 7.60352 40.2693 7.52949 40.3358C7.45546 40.4023 7.41068 40.4953 7.40491 40.5947V49.7663C7.41745 49.8626 7.46459 49.951 7.53753 50.015C7.61047 50.0791 7.70423 50.1144 7.80131 50.1144C7.89838 50.1144 7.99214 50.0791 8.06508 50.015C8.13803 49.951 8.18517 49.8626 8.19771 49.7663V40.5947C8.19195 40.4949 8.14685 40.4015 8.07234 40.335C7.99782 40.2684 7.89996 40.2341 7.80019 40.2396Z" fill="#323646"/>
<path d="M14.7387 40.2397C14.6396 40.2348 14.5425 40.2695 14.4688 40.336C14.3952 40.4026 14.3509 40.4956 14.3457 40.5948V49.7664C14.3532 49.8658 14.398 49.9587 14.471 50.0265C14.5441 50.0943 14.6401 50.132 14.7398 50.132C14.8395 50.132 14.9356 50.0943 15.0087 50.0265C15.0818 49.9587 15.1265 49.8658 15.134 49.7664V40.5948C15.1282 40.4954 15.0835 40.4024 15.0094 40.3359C14.9354 40.2694 14.8381 40.2348 14.7387 40.2397Z" fill="#323646"/>
<path d="M20.3641 39.344H19.5445V26.6685C19.5398 26.5975 19.5142 26.5295 19.4709 26.473C19.4276 26.4166 19.3685 26.3742 19.3011 26.3514C19.2313 26.3229 19.1553 26.3134 19.0807 26.324C19.0062 26.3346 18.9358 26.3649 18.8768 26.4117L11.208 32.707L3.54155 26.4117C3.48165 26.3649 3.41048 26.3347 3.33522 26.3241C3.25996 26.3136 3.18325 26.323 3.11278 26.3514C3.04779 26.3767 2.99183 26.4208 2.95205 26.4781C2.91227 26.5354 2.89048 26.6032 2.88946 26.673V39.3485H2.04084C1.89792 39.3485 1.78625 39.507 1.78625 39.7013C1.78625 39.8956 1.89792 40.0519 2.04084 40.0519H3.34056C3.37545 40.0521 3.40959 40.042 3.43881 40.0229C3.50713 40.0005 3.56692 39.9576 3.61006 39.9001C3.6532 39.8426 3.67764 39.7732 3.68001 39.7013V27.468L10.949 33.4373C11.025 33.4982 11.1196 33.5313 11.217 33.5313C11.3144 33.5313 11.4089 33.4982 11.4849 33.4373L18.7517 27.468V39.6924C18.7528 39.7478 18.7679 39.8021 18.7956 39.8501C18.8233 39.8982 18.8628 39.9384 18.9103 39.9671C18.9297 39.9893 18.9533 40.0074 18.9797 40.0204C19.0062 40.0335 19.0349 40.0411 19.0643 40.043H20.3641C20.5025 40.043 20.6186 39.8889 20.6186 39.6924C20.6186 39.4959 20.5025 39.344 20.3641 39.344Z" fill="#323646"/>
<path d="M83.3485 31.8965C82.0733 31.8965 81.1488 32.2962 80.5659 33.1024L81.1734 33.6272C81.62 32.9572 82.348 32.6267 83.3373 32.6267C84.8112 32.6267 85.5549 33.2721 85.5549 34.5562V35.4383H83.0157C82.2073 35.4383 81.5664 35.6125 81.0885 35.9631C80.5481 36.3539 80.2756 36.9368 80.2756 37.7117C80.2756 39.2124 81.2336 39.9672 83.1586 39.9672C84.168 39.9672 84.9668 39.6731 85.5549 39.0851V39.8689H86.4034V34.4736C86.4034 32.7518 85.3851 31.8965 83.3485 31.8965ZM85.5549 37.1243C85.5549 37.839 85.4075 38.3437 85.1082 38.625C84.6973 39.027 84.0474 39.2302 83.1609 39.2302C81.7986 39.2302 81.1183 38.7188 81.1198 37.696C81.1198 36.6397 81.7897 36.1083 83.114 36.1083H85.5481L85.5549 37.1243Z" fill="#323646"/>
<path d="M94.1392 32.6267C94.903 32.6267 95.5752 32.9617 96.1625 33.6272L96.7297 33.1024C96.4113 32.7242 96.0141 32.4203 95.5658 32.212C95.1175 32.0037 94.6291 31.896 94.1348 31.8965C92.9914 31.8965 92.1115 32.2895 91.4996 33.0845C90.948 33.8058 90.6666 34.7549 90.6666 35.9296C90.6666 37.1042 90.948 38.0533 91.4996 38.7747C92.1115 39.5697 92.9899 39.9672 94.1348 39.9672C94.6294 39.9668 95.1179 39.8583 95.5662 39.6492C96.0145 39.4401 96.4116 39.1355 96.7297 38.7568L96.1625 38.2342C95.5752 38.9042 94.903 39.2302 94.1392 39.2302C92.3914 39.2302 91.5175 38.13 91.5175 35.9296C91.5175 33.7292 92.3914 32.6282 94.1392 32.6267Z" fill="#323646"/>
<path d="M103.237 31.8965C101.962 31.8965 101.035 32.2962 100.459 33.1024L101.062 33.6272C101.509 32.9617 102.231 32.6282 103.228 32.6267C104.705 32.6267 105.443 33.2699 105.441 34.5562V35.4383H102.904C102.096 35.4383 101.457 35.6125 100.977 35.9631C100.437 36.3546 100.167 36.9375 100.167 37.7117C100.167 39.2124 101.127 39.9672 103.05 39.9672C104.055 39.9672 104.854 39.6724 105.441 39.0851V39.8689H106.294V34.4736C106.294 32.7518 105.278 31.8965 103.237 31.8965ZM105.441 37.1243C105.441 37.839 105.298 38.3437 105.008 38.625C104.597 39.027 103.943 39.2302 103.061 39.2302C101.697 39.2302 101.015 38.7188 101.015 37.696C101.015 36.6397 101.685 36.1083 103.009 36.1083H105.441V37.1243Z" fill="#323646"/>
<path d="M115.837 33.0063C115.57 32.6425 115.218 32.3503 114.811 32.1555C114.404 31.9607 113.956 31.8694 113.505 31.8897C111.549 31.8897 110.572 33.234 110.573 35.9228C110.575 38.6115 111.552 39.9618 113.505 39.9738C113.956 39.9935 114.404 39.9019 114.811 39.7071C115.217 39.5124 115.57 39.2205 115.837 38.8572V39.871H116.683V28.2295H115.837V33.0063ZM113.628 39.2301C112.159 39.2301 111.424 38.1299 111.424 35.9295C111.424 34.9499 111.548 34.2055 111.797 33.6963C112.142 32.9876 112.753 32.6333 113.628 32.6333C114.503 32.6333 115.115 32.9876 115.464 33.6963C115.712 34.2099 115.837 34.9543 115.837 35.9295C115.837 38.1299 115.1 39.2301 113.628 39.2301Z" fill="#323646"/>
<path d="M124.169 31.8965C123.081 31.8965 122.262 32.3119 121.712 33.1493C121.243 33.8594 121.011 34.784 121.011 35.9296C121.011 38.6213 122.128 39.9672 124.361 39.9672C124.892 39.9696 125.418 39.8635 125.907 39.6554C126.396 39.4473 126.837 39.1415 127.204 38.7568L126.583 38.2677C126.308 38.569 125.974 38.81 125.602 38.9757C125.229 39.1413 124.826 39.228 124.419 39.2302C122.713 39.2302 121.859 38.1881 121.857 36.1038H127.317V35.7308C127.317 34.6306 127.073 33.7374 126.583 33.051C126.047 32.2761 125.236 31.8965 124.169 31.8965ZM121.864 35.4383C121.869 34.9227 121.963 34.4119 122.143 33.9287C122.3 33.5331 122.582 33.2003 122.947 32.9818C123.314 32.7477 123.74 32.6244 124.175 32.6267C124.615 32.6222 125.047 32.749 125.415 32.9907C126.085 33.4374 126.449 34.2413 126.491 35.4472L121.864 35.4383Z" fill="#323646"/>
<path d="M140.047 31.8964C139.512 31.8719 138.981 31.9922 138.509 32.2446C138.038 32.4969 137.643 32.872 137.367 33.3301C136.877 32.3743 136.033 31.8964 134.834 31.8964C134.393 31.8791 133.954 31.9626 133.55 32.1406C133.146 32.3187 132.788 32.5865 132.503 32.9237V31.988H131.654V39.8689H132.503V34.9804C132.503 34.2502 132.69 33.6763 133.07 33.2587C133.45 32.8411 133.995 32.6267 134.709 32.6267C136.145 32.6267 136.869 33.415 136.869 34.9804V39.8689H137.715V34.8375C137.7 34.5415 137.746 34.2455 137.851 33.9681C137.955 33.6907 138.116 33.4378 138.323 33.2252C138.538 33.0217 138.792 32.8638 139.07 32.7609C139.348 32.6581 139.643 32.6124 139.939 32.6267C141.389 32.6267 142.11 33.415 142.11 34.9804V39.8689H142.927V34.8375C142.927 33.9294 142.672 33.2118 142.161 32.6847C141.652 32.1577 140.944 31.8964 140.047 31.8964Z" fill="#323646"/>
<path d="M151.929 31.9881L149.564 38.8908L147.204 31.9881H146.279L149.165 39.8868L148.528 41.622C148.433 41.9442 148.255 42.2359 148.012 42.4684C147.735 42.6402 147.409 42.7185 147.083 42.6917H146.771V43.4286H147.162C147.704 43.4566 148.236 43.276 148.649 42.9239C148.899 42.6664 149.084 42.3524 149.187 42.0083L152.849 31.9858L151.929 31.9881Z" fill="#323646"/>
<path d="M34.3505 25.9919C32.2201 25.9919 30.6702 26.6619 29.7122 28.0018L31.8851 29.6588C32.3161 28.9487 33.187 28.6003 34.4867 28.6003C35.5006 28.6003 36.2242 28.732 36.6619 28.9911C37.0996 29.2501 37.3095 29.7146 37.3095 30.3623V31.8027H33.484C32.0712 31.8027 30.9598 32.2091 30.1499 33.022C29.775 33.4138 29.4811 33.8757 29.2851 34.3813C29.089 34.8869 28.9948 35.4262 29.0076 35.9684C29.0205 36.5105 29.1402 37.0447 29.36 37.5405C29.5798 38.0362 29.8952 38.4837 30.2883 38.8573C31.1816 39.6701 32.3831 40.081 33.8949 40.081C35.6078 40.081 36.749 39.6165 37.3095 38.6942V39.9158H40.0697V30.5208C40.0697 27.5016 38.1633 25.9919 34.3505 25.9919ZM37.3095 35.081C37.3095 36.1693 37.0288 36.866 36.4676 37.1712C36.1251 37.3722 35.3748 37.4727 34.2165 37.4727C32.4791 37.4727 31.6111 36.8936 31.6126 35.7353C31.6126 34.6291 32.4076 34.0775 33.9977 34.0805H37.3095V35.081Z" fill="#323646"/>
<path d="M48.5176 20.5967H45.7507V23.3613H48.5176V20.5967Z" fill="#323646"/>
<path d="M48.5176 26.1572H45.7507V39.9158H48.5176V26.1572Z" fill="#323646"/>
<path d="M68.9914 25.9921C67.178 25.9921 65.7257 26.5876 64.6345 27.7786C63.4747 26.5876 62.1772 25.9921 60.742 25.9921C59.2175 25.9921 58.0191 26.5355 57.1466 27.6223V26.1574H54.382V39.9137H57.1466V31.7113C57.1466 30.789 57.4012 30.0699 57.9081 29.5406C58.1658 29.2796 58.475 29.0751 58.8161 28.9402C59.1571 28.8052 59.5225 28.7428 59.889 28.7568C60.2513 28.7445 60.6121 28.8078 60.9486 28.9428C61.285 29.0777 61.5896 29.2813 61.843 29.5406C62.3499 30.0699 62.6023 30.789 62.6023 31.7113V39.9092H65.3714V31.7113C65.3714 30.789 65.6237 30.0699 66.1307 29.5406C66.3888 29.2796 66.6984 29.0751 67.0398 28.9401C67.3812 28.8052 67.7469 28.7427 68.1137 28.7568C68.4759 28.7452 68.8366 28.8088 69.173 28.9437C69.5093 29.0787 69.814 29.2819 70.0678 29.5406C70.5725 30.0699 70.8226 30.789 70.8226 31.7113V39.9092H73.5917V30.7711C73.5917 29.3046 73.0937 28.1188 72.0977 27.2136C71.2591 26.4203 70.1458 25.9825 68.9914 25.9921Z" fill="#323646"/>
<g opacity="0.53">
<path d="M78.0063 16.8238C77.0618 16.8238 76.2702 16.5045 75.6316 15.8659C74.9929 15.2272 74.6736 14.4356 74.6736 13.4911C74.6736 12.5466 74.9929 11.7505 75.6316 11.1029C76.2702 10.4552 77.0618 10.1314 78.0063 10.1314C78.9508 10.1314 79.7424 10.4552 80.3811 11.1029C81.0197 11.7505 81.339 12.5466 81.339 13.4911C81.339 14.4356 81.0197 15.2272 80.3811 15.8659C79.7424 16.5045 78.9508 16.8238 78.0063 16.8238ZM78.0063 11.1299C77.3407 11.1299 76.7965 11.3547 76.3737 11.8045C75.9599 12.2543 75.753 12.812 75.753 13.4776C75.753 14.1433 75.9599 14.701 76.3737 15.1507C76.7965 15.6005 77.3407 15.8254 78.0063 15.8254C78.672 15.8254 79.2117 15.6005 79.6255 15.1507C80.0482 14.701 80.2596 14.1433 80.2596 13.4776C80.2596 12.812 80.0482 12.2543 79.6255 11.8045C79.2117 11.3547 78.672 11.1299 78.0063 11.1299Z" fill="#323646"/>
<path d="M83.8423 10.3068V10.9949H83.8693C84.301 10.4192 84.7688 10.1314 85.2725 10.1314C85.5694 10.1314 85.8932 10.2303 86.244 10.4282L85.7313 11.4132C85.4524 11.2243 85.2365 11.1299 85.0836 11.1299C84.2561 11.1299 83.8423 11.9125 83.8423 13.4776V16.6484H82.7629V10.3068H83.8423Z" fill="#323646"/>
<path d="M89.9 11.1299C89.2884 11.1299 88.7891 11.3547 88.4023 11.8045C88.0245 12.2453 87.8356 12.7805 87.8356 13.4102C87.8356 14.0668 88.0155 14.6245 88.3754 15.0833C88.7621 15.578 89.2749 15.8254 89.9135 15.8254C90.5792 15.8254 91.1054 15.587 91.4922 15.1103C91.852 14.6695 92.0319 14.1073 92.0319 13.4236C92.0319 12.767 91.8385 12.2228 91.4517 11.791C91.0649 11.3503 90.5477 11.1299 89.9 11.1299ZM93.0574 10.3068V16.3381C93.0574 16.9948 93.0304 17.4715 92.9764 17.7683C92.8865 18.2631 92.6976 18.6949 92.4097 19.0637C91.825 19.8103 91.0065 20.1836 89.954 20.1836C89.0545 20.1836 88.3124 19.9182 87.7277 19.3875C87.152 18.8658 86.8552 18.1596 86.8372 17.2691H87.9166C87.9256 17.8538 88.1145 18.3171 88.4833 18.6589C88.8611 19.0097 89.3468 19.1851 89.9405 19.1851C91.2988 19.1851 91.9779 18.2991 91.9779 16.527V15.7714H91.951C91.4112 16.473 90.6781 16.8238 89.7516 16.8238C88.8431 16.8238 88.1055 16.491 87.5388 15.8254C86.9991 15.2047 86.7292 14.4311 86.7292 13.5046C86.7292 12.5691 87.0036 11.782 87.5523 11.1434C88.128 10.4687 88.8746 10.1314 89.7921 10.1314C90.6916 10.1314 91.4112 10.4912 91.951 11.2108H91.9779V10.3068H93.0574Z" fill="#323646"/>
<path d="M97.7944 11.1299C97.1827 11.1299 96.6835 11.3547 96.2967 11.8045C95.9189 12.2453 95.73 12.7805 95.73 13.4102C95.73 14.0668 95.9099 14.6245 96.2697 15.0833C96.6565 15.578 97.1692 15.8254 97.8079 15.8254C98.4736 15.8254 98.9998 15.587 99.3866 15.1103C99.7464 14.6695 99.9263 14.1073 99.9263 13.4236C99.9263 12.767 99.7329 12.2228 99.3461 11.791C98.9593 11.3503 98.4421 11.1299 97.7944 11.1299ZM100.952 10.3068V16.6484H99.8723V15.7714H99.8453C99.2966 16.473 98.568 16.8238 97.6595 16.8238C96.76 16.8238 96.0224 16.4865 95.4467 15.8119C94.8979 15.1822 94.6236 14.4086 94.6236 13.4911C94.6236 12.5466 94.8935 11.7595 95.4332 11.1299C95.9999 10.4642 96.7465 10.1314 97.673 10.1314C98.5635 10.1314 99.2876 10.4912 99.8453 11.2108H99.8723V10.3068H100.952Z" fill="#323646"/>
<path d="M104.03 10.3068V11.0759H104.057C104.516 10.4462 105.119 10.1314 105.865 10.1314C107.304 10.1314 108.024 11.0489 108.024 12.8839V16.6484H106.945V13.0728C106.945 12.4342 106.877 11.9799 106.742 11.7101C106.553 11.3233 106.175 11.1299 105.609 11.1299C104.943 11.1299 104.493 11.4042 104.259 11.9529C104.107 12.3127 104.03 12.8749 104.03 13.6395V16.6484H102.951V10.3068H104.03Z" fill="#323646"/>
<path d="M111.361 10.3068V16.6484H110.282V10.3068H111.361ZM110.821 7.14948C111.028 7.14948 111.208 7.22594 111.361 7.37886C111.514 7.53178 111.59 7.71168 111.59 7.91857C111.59 8.13446 111.514 8.31886 111.361 8.47178C111.217 8.6157 111.037 8.68766 110.821 8.68766C110.605 8.68766 110.421 8.6157 110.268 8.47178C110.124 8.31886 110.052 8.13446 110.052 7.91857C110.052 7.71168 110.129 7.53178 110.282 7.37886C110.435 7.22594 110.614 7.14948 110.821 7.14948Z" fill="#323646"/>
<path d="M114.906 15.65H119.278V16.6484H112.72L117.294 11.3053H113.57V10.3068H119.466L114.906 15.65Z" fill="#323646"/>
<path d="M126.126 13.707H121.147C121.156 14.3187 121.354 14.8269 121.741 15.2317C122.128 15.6275 122.622 15.8254 123.225 15.8254C124.026 15.8254 124.669 15.3891 125.154 14.5166L126.072 15.0428C125.433 16.2302 124.457 16.8238 123.144 16.8238C122.208 16.8238 121.457 16.5135 120.891 15.8928C120.324 15.2722 120.041 14.4941 120.041 13.5586C120.041 12.5781 120.306 11.773 120.837 11.1434C121.394 10.4687 122.155 10.1314 123.117 10.1314C124.097 10.1314 124.867 10.4912 125.424 11.2108C125.946 11.8765 126.18 12.7085 126.126 13.707ZM121.201 12.7895H124.993C124.921 12.3217 124.709 11.9304 124.358 11.6156C124.008 11.2918 123.598 11.1299 123.13 11.1299C122.654 11.1299 122.226 11.2918 121.849 11.6156C121.48 11.9304 121.264 12.3217 121.201 12.7895Z" fill="#323646"/>
<path d="M130.235 11.1299C129.624 11.1299 129.124 11.3547 128.738 11.8045C128.36 12.2453 128.171 12.7805 128.171 13.4102C128.171 14.0668 128.351 14.6245 128.711 15.0833C129.097 15.578 129.61 15.8254 130.249 15.8254C130.914 15.8254 131.441 15.587 131.827 15.1103C132.187 14.6695 132.367 14.1073 132.367 13.4236C132.367 12.767 132.174 12.2228 131.787 11.791C131.4 11.3503 130.883 11.1299 130.235 11.1299ZM132.313 16.6484V15.7714H132.286C131.746 16.473 131.018 16.8238 130.1 16.8238C129.201 16.8238 128.463 16.4865 127.887 15.8119C127.339 15.1822 127.064 14.4086 127.064 13.4911C127.064 12.5466 127.334 11.7595 127.874 11.1299C128.441 10.4642 129.187 10.1314 130.114 10.1314C131.013 10.1314 131.737 10.4912 132.286 11.2108H132.313V5.51685H133.393V16.6484H132.313Z" fill="#323646"/>
<path d="M142.578 11.1299C141.966 11.1299 141.467 11.3547 141.08 11.8045C140.702 12.2453 140.514 12.7805 140.514 13.4102C140.514 14.0668 140.693 14.6245 141.053 15.0833C141.44 15.578 141.953 15.8254 142.591 15.8254C143.257 15.8254 143.783 15.587 144.17 15.1103C144.53 14.6695 144.71 14.1073 144.71 13.4236C144.71 12.767 144.516 12.2228 144.13 11.791C143.743 11.3503 143.226 11.1299 142.578 11.1299ZM139.488 16.6484V5.51685H140.568V11.2108H140.595C141.143 10.4912 141.867 10.1314 142.767 10.1314C143.693 10.1314 144.44 10.4642 145.007 11.1299C145.546 11.7505 145.816 12.5331 145.816 13.4776C145.816 14.3951 145.542 15.1732 144.993 15.8119C144.427 16.4865 143.689 16.8238 142.78 16.8238C141.845 16.8238 141.116 16.473 140.595 15.7714H140.568V16.6484H139.488Z" fill="#323646"/>
<path d="M149.191 16.0548L146.277 10.3068H147.532L149.772 14.8539L151.823 10.3068H153.05L148.368 20.2105H147.141L149.191 16.0548Z" fill="#323646"/>
</g>
</g>
<defs>
<clipPath id="clip0_43_2269">
<rect width="399.068" height="58" fill="white" transform="translate(-246)"/>
</clipPath>
</defs>
</svg>
