<svg width="22" height="22" viewBox="0 0 22 22" fill="none" xmlns="http://www.w3.org/2000/svg">
<path d="M11 3.66665C12.7692 3.66665 15.5834 4.94998 15.5834 8.38748C15.5834 10.3675 14.0067 12.6683 11 15.0975C7.99337 12.6683 6.41671 10.3583 6.41671 8.38748C6.41671 4.94998 9.23087 3.66665 11 3.66665ZM11 1.83331C8.00254 1.83331 4.58337 4.08831 4.58337 8.38748C4.58337 11.2475 6.71921 14.2633 11 17.4166C15.2809 14.2633 17.4167 11.2475 17.4167 8.38748C17.4167 4.08831 13.9975 1.83331 11 1.83331Z" fill="#153842"/>
<path d="M11 6.41669C9.99171 6.41669 9.16671 7.24169 9.16671 8.25002C9.16671 9.25835 9.99171 10.0834 11 10.0834C11.4863 10.0834 11.9526 9.8902 12.2964 9.54638C12.6402 9.20257 12.8334 8.73625 12.8334 8.25002C12.8334 7.76379 12.6402 7.29747 12.2964 6.95366C11.9526 6.60984 11.4863 6.41669 11 6.41669ZM4.58337 18.3334H17.4167V20.1667H4.58337V18.3334Z" fill="#153842"/>
</svg>
