<svg width="22" height="22" viewBox="0 0 22 22" fill="none" xmlns="http://www.w3.org/2000/svg">
<path d="M10.9999 3.66671C12.7691 3.66671 15.5833 4.95004 15.5833 8.38754C15.5833 10.3675 14.0066 12.6684 10.9999 15.0975C7.99325 12.6684 6.41659 10.3584 6.41659 8.38754C6.41659 4.95004 9.23075 3.66671 10.9999 3.66671ZM10.9999 1.83337C8.00242 1.83337 4.58325 4.08837 4.58325 8.38754C4.58325 11.2475 6.71909 14.2634 10.9999 17.4167C15.2808 14.2634 17.4166 11.2475 17.4166 8.38754C17.4166 4.08837 13.9974 1.83337 10.9999 1.83337Z" fill="white"/>
<path d="M10.9999 6.41663C9.99159 6.41663 9.16659 7.24163 9.16659 8.24996C9.16659 9.25829 9.99159 10.0833 10.9999 10.0833C11.4861 10.0833 11.9525 9.89014 12.2963 9.54632C12.6401 9.20251 12.8333 8.73619 12.8333 8.24996C12.8333 7.76373 12.6401 7.29741 12.2963 6.9536C11.9525 6.60978 11.4861 6.41663 10.9999 6.41663ZM4.58325 18.3333H17.4166V20.1666H4.58325V18.3333Z" fill="white"/>
</svg>
