<svg width="18" height="19" viewBox="0 0 18 19" fill="none" xmlns="http://www.w3.org/2000/svg">
<path d="M3.54 2.02992C3.6 2.93324 3.75 3.81625 3.99 4.65867L2.79 5.87662C2.38 4.65867 2.12 3.36967 2.03 2.02992H3.54ZM13.4 14.2297C14.25 14.4733 15.12 14.6256 16 14.6865V16.1988C14.68 16.1074 13.41 15.8435 12.2 15.4375L13.4 14.2297ZM4.5 0H1C0.45 0 0 0.456732 0 1.01496C0 10.5454 7.61 18.2693 17 18.2693C17.55 18.2693 18 17.8126 18 17.2543V13.7121C18 13.1539 17.55 12.6972 17 12.6972C15.76 12.6972 14.55 12.4942 13.43 12.1186C13.33 12.078 13.22 12.0679 13.12 12.0679C12.86 12.0679 12.61 12.1694 12.41 12.3622L10.21 14.5951C7.38 13.1234 5.06 10.7789 3.62 7.90654L5.82 5.67363C6.1 5.38944 6.18 4.99361 6.07 4.63837C5.7 3.50161 5.5 2.28366 5.5 1.01496C5.5 0.456732 5.05 0 4.5 0Z" fill="#EACC8A"/>
</svg>
