<svg width="16" height="15" viewBox="0 0 16 15" fill="none" xmlns="http://www.w3.org/2000/svg">
<path d="M15.0577 7.80772H0.557694C0.250166 7.80772 0 7.55755 0 7.25003C0 6.9425 0.250166 6.69233 0.557694 6.69233H15.0577C15.3669 6.69233 15.6154 6.9425 15.6154 7.25003C15.6154 7.55755 15.3669 7.80772 15.0577 7.80772ZM13.3847 14.5001H10.3094C10.0003 14.5001 9.75168 14.2515 9.75168 13.9424C9.75168 13.6332 10.0018 13.3847 10.3094 13.3847H13.3847C13.6922 13.3847 13.9424 13.1345 13.9424 12.827V10.0385C13.9424 9.72937 14.1925 9.4808 14.5001 9.4808C14.8092 9.4808 15.0577 9.72937 15.0577 10.0385V12.827C15.0577 13.7496 14.3072 14.5001 13.3847 14.5001ZM5.40804 14.5001H2.23078C1.30819 14.5001 0.557694 13.7496 0.557694 12.827V10.0385C0.557694 9.72937 0.80786 9.4808 1.11539 9.4808C1.42292 9.4808 1.67308 9.72937 1.67308 10.0385V12.827C1.67308 13.1345 1.92325 13.3847 2.23078 13.3847H5.40804C5.71716 13.3847 5.96574 13.6348 5.96574 13.9424C5.96574 14.2515 5.71557 14.5001 5.40804 14.5001ZM1.11539 5.01925C0.80786 5.01925 0.557694 4.76908 0.557694 4.46155V1.67308C0.557694 0.750497 1.30819 0 2.23078 0H5.40804C5.71716 0 5.96574 0.250166 5.96574 0.557694C5.96574 0.865223 5.71557 1.11539 5.40804 1.11539H2.23078C1.92325 1.11539 1.67308 1.36555 1.67308 1.67308V4.46155C1.67308 4.76908 1.42292 5.01925 1.11539 5.01925ZM14.5001 5.01925C14.1909 5.01925 13.9424 4.76908 13.9424 4.46155V1.67308C13.9424 1.36555 13.6938 1.11539 13.3847 1.11539H10.3094C10.0003 1.11539 9.75168 0.865223 9.75168 0.557694C9.75168 0.250166 10.0018 0 10.3094 0H13.3847C14.3072 0 15.0577 0.750497 15.0577 1.67308V4.46155C15.0577 4.76908 14.8092 5.01925 14.5001 5.01925Z" fill="#153842"/>
</svg>
