<svg width="46" height="46" viewBox="0 0 46 46" fill="none" xmlns="http://www.w3.org/2000/svg">
<path d="M40.8889 0H5.11111C2.28832 0 0 2.28832 0 5.11111V40.8889C0 43.7117 2.28832 46 5.11111 46H40.8889C43.7117 46 46 43.7117 46 40.8889V5.11111C46 2.28832 43.7117 0 40.8889 0Z" fill="white"/>
<path d="M23 38.1096C31.3448 38.1096 38.1095 31.3448 38.1095 23C38.1095 14.6553 31.3448 7.8905 23 7.8905C14.6552 7.8905 7.89047 14.6553 7.89047 23C7.89047 31.3448 14.6552 38.1096 23 38.1096Z" fill="#163842"/>
<path d="M29.0636 30.1878C28.8798 30.1893 28.6994 30.1388 28.5431 30.0421C22.594 26.4664 15.5311 28.5327 15.4738 28.5587C15.2248 28.6263 14.9593 28.5945 14.7333 28.4699C14.5073 28.3452 14.3387 28.1376 14.263 27.891C14.1873 27.6443 14.2105 27.3778 14.3277 27.1479C14.4448 26.918 14.6468 26.7427 14.8909 26.659C15.2136 26.5601 22.8438 24.3012 29.5684 28.3453C29.7536 28.4584 29.8966 28.6289 29.9758 28.8309C30.055 29.0329 30.0659 29.2552 30.0069 29.4639C29.948 29.6727 29.8223 29.8565 29.6492 29.9871C29.476 30.1178 29.2649 30.1883 29.048 30.1878H29.0636Z" fill="white"/>
<path d="M30.776 26.1125C30.5714 26.1117 30.3705 26.0579 30.193 25.9563C25.5949 23.3899 20.1661 22.7534 15.0991 24.1867C14.8084 24.2732 14.4954 24.244 14.2257 24.1053C13.9559 23.9666 13.7501 23.729 13.6514 23.4421C13.5527 23.1553 13.5685 22.8414 13.6957 22.566C13.8229 22.2906 14.0516 22.075 14.334 21.9642C17.1603 21.1421 20.1225 20.8936 23.0462 21.2333C25.97 21.5729 28.7963 22.4939 31.3589 23.9421C31.5809 24.0721 31.7542 24.2714 31.8521 24.5093C31.9501 24.7473 31.9673 25.0108 31.9011 25.2595C31.835 25.5081 31.6891 25.7282 31.4859 25.8861C31.2826 26.0439 31.0333 26.1307 30.776 26.1333V26.1125Z" fill="white"/>
<path d="M32.6289 21.4906C32.398 21.4934 32.1698 21.4417 31.9627 21.3397C23.3435 16.8115 14.4954 19.5232 14.4069 19.5492C14.2251 19.6066 14.0337 19.6277 13.8438 19.6111C13.6539 19.5946 13.469 19.5408 13.2999 19.4529C13.1307 19.3649 12.9805 19.2445 12.8579 19.0985C12.7353 18.9525 12.6426 18.7838 12.5852 18.602C12.5278 18.4201 12.5068 18.2288 12.5233 18.0389C12.5398 17.8489 12.5936 17.6641 12.6816 17.4949C12.7695 17.3258 12.89 17.1756 13.036 17.053C13.182 16.9304 13.3507 16.8377 13.5325 16.7803C13.9437 16.6554 23.6298 13.6886 33.3107 18.7685C33.5943 18.9206 33.8192 19.1628 33.9496 19.457C34.0801 19.7512 34.1088 20.0804 34.0312 20.3927C33.9536 20.705 33.774 20.9825 33.521 21.1814C33.268 21.3802 32.9559 21.489 32.6341 21.4906H32.6289Z" fill="white"/>
</svg>
