<svg width="22" height="22" viewBox="0 0 22 22" fill="none" xmlns="http://www.w3.org/2000/svg">
<path d="M10.1976 3.12134H3.24879C2.72224 3.12134 2.21726 3.33205 1.84493 3.70712C1.4726 4.0822 1.26343 4.5909 1.26343 5.12134V19.1213C1.26343 19.6518 1.4726 20.1605 1.84493 20.5356C2.21726 20.9106 2.72224 21.1213 3.24879 21.1213H17.1464C17.6729 21.1213 18.1779 20.9106 18.5502 20.5356C18.9225 20.1605 19.1317 19.6518 19.1317 19.1213V12.1213" stroke="#153842" stroke-linecap="round" stroke-linejoin="round"/>
<path d="M17.6427 1.62132C18.0376 1.2235 18.5732 1 19.1317 1C19.6902 1 20.2258 1.2235 20.6207 1.62132C21.0156 2.01915 21.2375 2.55871 21.2375 3.12132C21.2375 3.68393 21.0156 4.2235 20.6207 4.62132L11.1902 14.1213L7.21951 15.1213L8.2122 11.1213L17.6427 1.62132Z" stroke="#153842" stroke-linecap="round" stroke-linejoin="round"/>
</svg>
