<svg width="47" height="47" viewBox="0 0 47 47" fill="none" xmlns="http://www.w3.org/2000/svg">
<g clip-path="url(#clip0_22_567)">
<path d="M41.085 0.0283203H5.13563C2.2993 0.0283203 0 2.32762 0 5.16395V41.1133C0 43.9497 2.2993 46.249 5.13563 46.249H41.085C43.9214 46.249 46.2207 43.9497 46.2207 41.1133V5.16395C46.2207 2.32762 43.9214 0.0283203 41.085 0.0283203Z" fill="white"/>
<path fill-rule="evenodd" clip-rule="evenodd" d="M13.4562 34.367C7.40011 29.1372 11.3172 17.4121 20.6262 18.8869V19.9694C12.7658 19.6033 9.30374 28.9803 13.4562 34.367ZM30.4372 14.0703C31.6116 14.9671 33.0392 15.4704 34.5164 15.5084V16.5544C33.7059 16.431 32.9279 16.1479 32.2277 15.7214C31.5274 15.295 30.9188 14.7338 30.4372 14.0703V14.0703ZM27.9112 8.48486C27.9182 8.88646 27.9567 9.2869 28.0263 9.68248H24.3132V28.1592C24.3251 28.9257 24.2372 29.6904 24.0517 30.4342C22.5403 33.7655 18.2623 33.3315 17.0804 31.0461C17.5723 31.3547 18.125 31.5535 18.7008 31.6287C19.2766 31.704 19.8619 31.654 20.4166 31.4822C20.9713 31.3104 21.4823 31.0208 21.9147 30.6332C22.3472 30.2456 22.6908 29.7692 22.9221 29.2366C23.105 28.4923 23.1929 27.7279 23.1835 26.9616V8.48486H27.9112Z" stroke="#163842" stroke-width="1.18" stroke-miterlimit="10"/>
<path fill-rule="evenodd" clip-rule="evenodd" d="M29.0461 9.6825C29.0461 10.1113 29.1716 16.2981 35.6618 16.6852C35.6618 22.4379 35.6618 16.6852 35.6618 21.4652C35.1702 21.4652 31.389 21.2194 29.0304 19.117V28.426C29.088 32.6098 26.7398 36.7936 22.352 37.6042C20.9636 37.8629 19.5352 37.8129 18.1682 37.4578C7.43673 34.2729 10.9825 18.3796 21.7558 20.0845C21.7558 25.2149 21.7558 20.0845 21.7558 25.2149C17.3158 24.5612 15.8305 28.2691 17.0072 30.884C18.0845 33.2897 22.5089 33.8126 24.0517 30.4133C24.2372 29.6695 24.3251 28.9048 24.3132 28.1383V9.6825H29.0461Z" fill="#163842"/>
<path fill-rule="evenodd" clip-rule="evenodd" d="M20.6262 19.9694C21.0047 19.9855 21.3819 20.0239 21.7558 20.0845C21.7558 25.2149 21.7558 20.0845 21.7558 25.2149C17.3158 24.5612 15.8305 28.2691 17.0072 30.8839L17.0804 31.0251C16.5545 30.7093 16.1355 30.2429 15.8776 29.6863C14.7009 27.0401 16.1861 23.3426 20.6262 23.9963V19.9694ZM34.5165 16.5701C34.8903 16.6359 35.2674 16.6813 35.6461 16.7061C35.6461 22.4588 35.6461 16.7061 35.6461 21.4861C35.1545 21.4861 31.3734 21.2403 29.0147 19.1379V28.4469C29.0723 32.6307 26.7241 36.8145 22.3363 37.6251C20.9479 37.8838 19.5195 37.8338 18.1525 37.4787C16.2893 36.961 14.6402 35.8616 13.4457 34.3408C14.4838 35.2269 15.7002 35.8797 17.0124 36.2549C18.3793 36.6107 19.8078 36.6607 21.1962 36.4013C25.6259 35.5907 27.9583 31.4644 27.9008 27.2493V17.9403C30.2542 20.0322 34.0406 20.3198 34.5321 20.2884C34.5165 15.8484 34.5165 20.4924 34.5165 16.5701ZM29.0461 9.68248C29.0813 11.2414 29.5642 12.7573 30.4372 14.0493C29.1254 12.9297 28.2679 11.3692 28.0263 9.66156L29.0461 9.68248Z" stroke="#163842" stroke-width="1.18" stroke-miterlimit="10"/>
</g>
<defs>
<clipPath id="clip0_22_567">
<rect width="46.2207" height="46.2207" fill="white" transform="translate(0 0.0283203)"/>
</clipPath>
</defs>
</svg>
