<svg width="11" height="14" viewBox="0 0 11 14" fill="none" xmlns="http://www.w3.org/2000/svg">
<path d="M7.46245 6.87344C8.12554 6.43861 8.63325 5.79521 8.90944 5.03977C9.18562 4.28432 9.21539 3.45753 8.99433 2.68327C8.77327 1.90901 8.31329 1.22903 7.6833 0.745268C7.05331 0.261507 6.28724 0 5.5 0C4.71276 0 3.94669 0.261507 3.3167 0.745268C2.68671 1.22903 2.22673 1.90901 2.00567 2.68327C1.78461 3.45753 1.81438 4.28432 2.09056 5.03977C2.36675 5.79521 2.87446 6.43861 3.53755 6.87344C2.49346 7.2834 1.59591 8.00926 0.964031 8.95453C0.332156 9.89979 -0.00410359 11.0197 3.77989e-05 12.1655C0.00230091 12.6513 0.191697 13.1166 0.526951 13.4602C0.862204 13.8037 1.31617 13.9977 1.79028 14H9.20961C9.68373 13.9977 10.1378 13.8037 10.473 13.4602C10.8083 13.1166 10.9977 12.6513 11 12.1655C11.0041 11.0197 10.6678 9.89979 10.036 8.95453C9.40409 8.00926 8.50654 7.2834 7.46245 6.87344ZM2.79735 3.73345C2.79735 3.18569 2.95585 2.65033 3.25282 2.19489C3.54979 1.73945 3.97187 1.38447 4.46572 1.17486C4.95956 0.965242 5.50297 0.910373 6.02723 1.01723C6.55149 1.1241 7.0331 1.38789 7.41107 1.77521C7.78904 2.16253 8.04646 2.65595 8.15075 3.19318C8.25503 3.73041 8.20148 4.28726 7.99693 4.79332C7.79237 5.29938 7.44596 5.73191 7.00152 6.03622C6.55707 6.34054 6.03453 6.50296 5.5 6.50296C5.14176 6.50182 4.78731 6.42803 4.4571 6.28569C4.12689 6.14334 3.82741 5.93533 3.57611 5.67371C3.32481 5.41209 3.12666 5.10203 2.99299 4.76145C2.85931 4.42086 2.7928 4.05648 2.79735 3.68941V3.73345ZM9.20961 13.0033H1.79028C1.56201 13.0033 1.34315 12.9104 1.18173 12.745C1.02032 12.5796 0.929569 12.3552 0.929569 12.1213C0.929569 10.8839 1.4093 9.6971 2.26319 8.8221C3.11707 7.94709 4.27519 7.45559 5.48277 7.45559C6.69034 7.45559 7.84846 7.94709 8.70235 8.8221C9.55623 9.6971 10.036 10.8839 10.036 12.1213C10.0254 12.3416 9.93465 12.5498 9.78171 12.7049C9.62876 12.86 9.42462 12.9507 9.20961 12.9593V13.0033Z" fill="#153842"/>
</svg>
