<svg width="15" height="19" viewBox="0 0 15 19" fill="none" xmlns="http://www.w3.org/2000/svg">
<path d="M10.1276 9.32824C11.0275 8.73811 11.7166 7.86493 12.0914 6.83968C12.4662 5.81444 12.5066 4.69236 12.2066 3.64158C11.9066 2.59079 11.2823 1.66797 10.4273 1.01144C9.57235 0.354902 8.53269 0 7.46429 0C6.39588 0 5.35622 0.354902 4.50124 1.01144C3.64625 1.66797 3.02199 2.59079 2.72198 3.64158C2.42197 4.69236 2.46237 5.81444 2.83719 6.83968C3.21202 7.86493 3.90105 8.73811 4.80096 9.32824C3.38399 9.88462 2.16587 10.8697 1.30833 12.1526C0.450783 13.4354 -0.00556916 14.9553 5.12985e-05 16.5103C0.00312267 17.1696 0.260161 17.8011 0.715147 18.2674C1.17013 18.7336 1.78623 18.9969 2.42967 19H12.4988C13.1422 18.9969 13.7584 18.7336 14.2134 18.2674C14.6684 17.8011 14.9254 17.1696 14.9285 16.5103C14.9341 14.9553 14.4778 13.4354 13.6202 12.1526C12.7627 10.8697 11.5446 9.88462 10.1276 9.32824ZM3.79641 5.06682C3.79641 4.32344 4.01151 3.59688 4.41454 2.97878C4.81757 2.36068 5.3904 1.87893 6.06062 1.59445C6.73083 1.30997 7.46831 1.23551 8.17981 1.38053C8.8913 1.52556 9.54492 1.88356 10.0579 2.40921C10.5708 2.93486 10.9202 3.6045 11.0617 4.3336C11.2032 5.06269 11.1306 5.81842 10.853 6.50522C10.5754 7.19201 10.1052 7.77902 9.50206 8.19202C8.89888 8.60502 8.18972 8.82544 7.46429 8.82544C6.97811 8.8239 6.49707 8.72376 6.04892 8.53057C5.60078 8.33739 5.19435 8.05509 4.85329 7.70003C4.51224 7.34498 4.24333 6.92419 4.06191 6.46197C3.88049 5.99974 3.79023 5.50523 3.79641 5.00706V5.06682ZM12.4988 17.6474H2.42967C2.11986 17.6474 1.82284 17.5213 1.60378 17.2968C1.38471 17.0724 1.26156 16.7678 1.26156 16.4504C1.26156 14.771 1.91263 13.1604 3.07147 11.9728C4.23031 10.7853 5.80205 10.1183 7.4409 10.1183C9.07975 10.1183 10.6515 10.7853 11.8103 11.9728C12.9692 13.1604 13.6202 14.771 13.6202 16.4504C13.6059 16.7492 13.4827 17.0318 13.2752 17.2423C13.0676 17.4528 12.7906 17.576 12.4988 17.5876V17.6474Z" fill="white"/>
</svg>
