<svg width="46" height="46" viewBox="0 0 46 46" fill="none" xmlns="http://www.w3.org/2000/svg">
<g clip-path="url(#clip0_22_538)">
<path d="M41.8404 0H4.16478C3.06021 0 2.00088 0.438788 1.21984 1.21984C0.438788 2.00088 0 3.06021 0 4.16478L0 41.8404C0 42.945 0.438788 44.0043 1.21984 44.7854C2.00088 45.5664 3.06021 46.0052 4.16478 46.0052H41.8404C42.945 46.0052 44.0043 45.5664 44.7854 44.7854C45.5664 44.0043 46.0052 42.945 46.0052 41.8404V4.16478C46.0052 3.06021 45.5664 2.00088 44.7854 1.21984C44.0043 0.438788 42.945 0 41.8404 0V0ZM14.3112 34.4584V11.5521L31.6888 23.0052L14.3112 34.4584Z" fill="white"/>
</g>
<defs>
<clipPath id="clip0_22_538">
<rect width="46" height="46" fill="white"/>
</clipPath>
</defs>
</svg>
